<svg width="800" height="600" viewBox="0 0 800 600" fill="none" xmlns="http://www.w3.org/2000/svg">
<rect width="800" height="600" fill="white"/>
<path d="M399.7 541C535.396 541 645.4 537.284 645.4 532.7C645.4 528.116 535.396 524.4 399.7 524.4C264.004 524.4 154 528.116 154 532.7C154 537.284 264.004 541 399.7 541Z" fill="url(#paint0_linear_9_13384)"/>
<path d="M589.7 529.001C591.3 529.001 592.7 527.401 592.7 525.501V347.101H584L586.8 525.501C586.7 527.401 588.1 529.001 589.7 529.001Z" fill="#81859A"/>
<path d="M294.8 529.001C296.4 529.001 297.8 527.401 297.8 525.501V347.101H289L291.8 525.501C291.8 527.401 293.2 529.001 294.8 529.001Z" fill="#81859A"/>
<path d="M414.9 335.7H358C356.9 335.7 356.1 336.6 356.1 337.6V339.6C356.1 340.7 357 341.5 358 341.5H414.9C416 341.5 416.8 340.6 416.8 339.6V337.6C416.9 336.6 416 335.7 414.9 335.7Z" fill="#FF6C95"/>
<g opacity="0.5">
<path opacity="0.5" d="M413.4 336.8H360V340.4H413.4V336.8Z" fill="#F1F5FF"/>
</g>
<path d="M411.3 326.4H363.6C362.1 326.4 360.9 327.6 360.9 329.1V333.5C360.9 335 362.1 336.2 363.6 336.2H411.3C412.8 336.2 414 335 414 333.5V329.1C414 327.6 412.8 326.4 411.3 326.4Z" fill="#5A52FF"/>
<g opacity="0.5">
<path opacity="0.5" d="M371 326.4H369.6V335.7H371V326.4Z" fill="#F1F5FF"/>
<path opacity="0.5" d="M372.7 326.4H371.3V335.7H372.7V326.4Z" fill="#F1F5FF"/>
<path opacity="0.5" d="M374.4 326.4H373V335.7H374.4V326.4Z" fill="#F1F5FF"/>
</g>
<g opacity="0.5">
<path opacity="0.5" d="M401.9 326.4H400.5V335.7H401.9V326.4Z" fill="#F1F5FF"/>
<path opacity="0.5" d="M403.6 326.4H402.2V335.7H403.6V326.4Z" fill="#F1F5FF"/>
<path opacity="0.5" d="M405.3 326.4H403.9V335.7H405.3V326.4Z" fill="#F1F5FF"/>
</g>
<path opacity="0.5" d="M398.4 329.4H376.6V333.3H398.4V329.4Z" fill="#F1F5FF"/>
<path d="M414.4 317.101H358.5C357.1 317.101 356 318.201 356 319.601V324.001C356 325.401 357.1 326.501 358.5 326.501H414.4C415.8 326.501 416.9 325.401 416.9 324.001V319.601C416.9 318.201 415.8 317.101 414.4 317.101Z" fill="#00C7B1"/>
<path opacity="0.5" d="M406 318.801H367.9V320.101H406V318.801Z" fill="#F1F5FF"/>
<path opacity="0.5" d="M406 321.101H367.9V322.401H406V321.101Z" fill="#F1F5FF"/>
<path opacity="0.5" d="M405.7 323.4H367.6V324.7H405.7V323.4Z" fill="#F1F5FF"/>
<path opacity="0.5" d="M413.4 317.101H409.1V326.401H413.4V317.101Z" fill="#F1F5FF"/>
<path d="M541.044 173.576H549.044V170.676H541.044V173.576Z" fill="#9494FF"/>
<path d="M539.7 177H550.5L550 172.7H540.2L539.7 177Z" fill="#5A52FF"/>
<path d="M543.4 158.9C543.4 158.3 543.7 157.7 544.2 157.4V145L535.8 160.7L541.1 171H545.2V160.7C544.1 160.6 543.4 159.8 543.4 158.9Z" fill="url(#paint1_linear_9_13384)"/>
<path d="M554.4 160.6L546 145V157.5H545.9C546.4 157.8 546.7 158.3 546.7 159C546.7 159.9 545.9 160.7 545 160.7V171H548.9L554.4 160.6Z" fill="#9494FF"/>
<path d="M512.1 176.6C512.2 159.3 526.3 145.2 543.6 145.2C561 145.2 575.1 159.3 575.1 176.7H572.4C572.4 160.8 559.5 147.9 543.6 147.9C527.8 147.9 514.9 160.8 514.8 176.6H512.1Z" fill="#37374F"/>
<path d="M547.59 149.34V143.84H542.09V149.34H547.59Z" fill="#AAAFC1"/>
<path d="M576.443 179.517V174.017H570.943V179.517H576.443Z" fill="#AAAFC1"/>
<path d="M516.17 179.489V173.989H510.67V179.489H516.17Z" fill="#AAAFC1"/>
<path d="M571.533 147.897V145.297H568.933V147.897H571.533Z" fill="#AAAFC1"/>
<path d="M520.847 147.882V145.282H518.247V147.882H520.847Z" fill="#AAAFC1"/>
<path d="M570.2 146.3H519.5V147H570.2V146.3Z" fill="#AAAFC1"/>
<path d="M575.7 153H573.1V155.6H575.7V153Z" fill="#AAAFC1"/>
<path d="M574.8 154.3H574.1V178.4H574.8V154.3Z" fill="#AAAFC1"/>
<path d="M514.8 153H512.2V155.6H514.8V153Z" fill="#AAAFC1"/>
<path d="M513.8 154.3H513.1V178.4H513.8V154.3Z" fill="#AAAFC1"/>
<path d="M492.6 114.7C486.8 110.1 475.2 102.4 455.4 104.4C435.5 106.4 429.1 123.4 432.4 132.2C435.7 141.1 445.8 151.5 464.2 151.5C464.2 151.5 474 151.3 479.6 147.9C485.2 144.5 483.4 138.3 481.9 136.9C481.9 136.9 479.4 133.3 481.2 131C481.2 131 483.5 128.1 486 129.7C488.5 131.3 492.6 130.7 494.9 128C497.2 125.4 498.4 119.3 492.6 114.7ZM471.2 145.5C467.7 145.5 464.8 143.4 464.8 140.9C464.8 138.4 467.6 136.3 471.2 136.3C474.7 136.3 477.6 138.4 477.6 140.9C477.6 143.4 474.7 145.5 471.2 145.5Z" fill="#F1F5FF"/>
<path d="M443.7 138.7C445.964 138.7 447.8 136.864 447.8 134.6C447.8 132.336 445.964 130.5 443.7 130.5C441.435 130.5 439.6 132.336 439.6 134.6C439.6 136.864 441.435 138.7 443.7 138.7Z" fill="#656A7F"/>
<path d="M446.2 121.701C446.2 123.901 444.4 125.801 442.1 125.801C439.8 125.801 438 124.001 438 121.701C438 119.501 439.8 117.601 442.1 117.601C444.4 117.601 446.2 119.401 446.2 121.701Z" fill="#5A52FF"/>
<path d="M456.6 113.8C456.6 116 454.8 117.9 452.5 117.9C450.3 117.9 448.4 116.1 448.4 113.8C448.4 111.5 450.2 109.7 452.5 109.7C454.7 109.8 456.6 111.6 456.6 113.8Z" fill="#9494FF"/>
<path d="M469.1 112.701C469.1 114.901 467.3 116.801 465 116.801C462.8 116.801 460.9 115.001 460.9 112.701C460.9 110.501 462.7 108.601 465 108.601C467.3 108.601 469.1 110.501 469.1 112.701Z" fill="#FF6C95"/>
<path d="M477.6 119.2C479.864 119.2 481.7 117.364 481.7 115.1C481.7 112.836 479.864 111 477.6 111C475.336 111 473.5 112.836 473.5 115.1C473.5 117.364 475.336 119.2 477.6 119.2Z" fill="#FFB81D"/>
<path d="M488.6 126.6C490.864 126.6 492.7 124.765 492.7 122.5C492.7 120.236 490.864 118.4 488.6 118.4C486.336 118.4 484.5 120.236 484.5 122.5C484.5 124.765 486.336 126.6 488.6 126.6Z" fill="#00C7B1"/>
<path d="M462.4 145.8C462.4 145.8 463.3 145.6 463.3 144.6C463.3 143.6 462.4 143.9 461.6 142C460.7 140.1 461.8 136.2 464.8 134.1C467.9 131.9 472.6 131.9 475.7 133.2C475.7 133.2 477.2 133.4 477.8 131.3C478.4 129.2 481.4 125.3 477.8 124C474.2 122.6 465.8 120.3 459.1 121.2C452.5 122.1 450.5 124.9 451.5 127.3C452.5 129.7 456.1 134.7 452.2 138.4C448.3 142.1 451.9 143.5 451.9 143.5C451.9 143.5 455.9 145.2 462.4 145.8Z" fill="#E5E9F9"/>
<path opacity="0.45" d="M462.4 121.2C467.8 121.2 474 122.8 477.6 124.1C478.3 124.4 478.8 124.8 479 125.3C479.5 126.4 478.7 128 478.1 129.4C477.8 130 477.6 130.6 477.4 131.1C477 132.6 476.1 132.8 475.7 132.8C474.3 132.2 472.6 131.9 470.9 131.9C468.4 131.9 466.1 132.6 464.5 133.7C461.3 135.9 460.2 139.9 461.1 142.1C461.6 143.2 462 143.6 462.4 143.9C462.7 144.2 462.8 144.3 462.8 144.6C462.8 145.2 462.4 145.4 462.2 145.5C455.9 144.9 452 143.1 452 143.1C452 143.1 450.9 142.7 450.7 141.7C450.5 140.9 451.1 139.8 452.4 138.6C455.8 135.4 453.8 131.2 452.4 128.5C452.1 128 451.9 127.5 451.8 127.1C451.5 126.3 451.5 125.5 451.9 124.7C452.8 123.1 455.3 122 459 121.4C460.2 121.3 461.3 121.2 462.4 121.2ZM462.4 120.9C461.3 120.9 460.2 121 459.1 121.1C452.5 122 450.5 124.8 451.5 127.2C452.5 129.6 456.1 134.6 452.2 138.3C448.3 142 451.9 143.4 451.9 143.4C451.9 143.4 455.8 145.3 462.3 145.8C462.3 145.8 463.2 145.6 463.2 144.6C463.2 143.6 462.3 143.9 461.5 142C460.6 140.1 461.7 136.2 464.7 134.1C466.4 132.9 468.7 132.3 470.9 132.3C472.6 132.3 474.2 132.6 475.6 133.2C475.6 133.2 475.6 133.2 475.7 133.2C476 133.2 477.2 133.1 477.7 131.3C478.3 129.2 481.3 125.3 477.7 124C474.8 122.7 468.3 120.9 462.4 120.9Z" fill="#DCE9EA"/>
<path d="M258.3 151.5H191.7C190 151.5 188.6 152.9 188.6 154.6V242.7C188.6 244.4 190 245.8 191.7 245.8H258.3C260 245.8 261.4 244.4 261.4 242.7V154.7C261.4 152.9 260 151.5 258.3 151.5Z" fill="#F7931E"/>
<path d="M258.3 148.7H192.2C189.439 148.7 187.2 150.939 187.2 153.7V242.3C187.2 245.062 189.439 247.3 192.2 247.3H258.3C261.061 247.3 263.3 245.062 263.3 242.3V153.7C263.3 150.939 261.061 148.7 258.3 148.7Z" fill="#F1F5FF"/>
<path d="M179.8 137.3H276.5C278.433 137.3 280 138.867 280 140.8V260C280 261.933 278.433 263.5 276.5 263.5H179.8C177.867 263.5 176.3 261.933 176.3 260V140.8C176.3 138.867 177.867 137.3 179.8 137.3Z" fill="#BEC7FA" stroke="#212431" stroke-width="3" stroke-linecap="round" stroke-linejoin="round"/>
<path opacity="0.5" d="M268.283 194.105L227.837 153.659C225.884 151.706 222.718 151.706 220.766 153.659L180.319 194.105C178.367 196.057 178.367 199.223 180.319 201.176L220.766 241.622C222.718 243.574 225.884 243.574 227.837 241.622L268.283 201.176C270.235 199.223 270.235 196.057 268.283 194.105Z" fill="#F1F5FF"/>
<path d="M258.1 194.105L227.766 163.771C225.813 161.818 222.647 161.818 220.695 163.771L190.36 194.105C188.408 196.058 188.408 199.224 190.36 201.176L220.695 231.511C222.647 233.464 225.813 233.464 227.766 231.511L258.1 201.176C260.053 199.224 260.053 196.058 258.1 194.105Z" fill="#9494FF"/>
<path d="M239.715 194.105L227.765 182.155C225.813 180.202 222.647 180.202 220.694 182.155L208.744 194.105C206.792 196.057 206.792 199.223 208.744 201.176L220.694 213.126C222.647 215.078 225.813 215.078 227.765 213.126L239.715 201.176C241.668 199.223 241.668 196.057 239.715 194.105Z" fill="#CAD9FC"/>
<path d="M230.806 194.105L227.766 191.065C225.813 189.112 222.648 189.112 220.695 191.065L217.654 194.105C215.702 196.058 215.702 199.224 217.654 201.176L220.695 204.217C222.648 206.169 225.813 206.169 227.766 204.217L230.807 201.176C232.759 199.224 232.759 196.058 230.806 194.105Z" fill="#00C7B1"/>
<path opacity="0.5" d="M266.896 163.895C268.613 161.85 268.359 158.802 266.325 157.071C264.272 155.323 261.188 155.581 259.455 157.647L190.007 240.398C188.291 242.442 188.559 245.489 190.604 247.203C192.646 248.914 195.688 248.647 197.402 246.608L266.896 163.895Z" fill="#F1F5FF"/>
<path opacity="0.5" d="M275.285 165.647C275.958 164.845 275.862 163.65 275.069 162.966C274.261 162.27 273.039 162.368 272.353 163.186L199.119 250.448C198.447 251.248 198.556 252.443 199.361 253.109C200.157 253.768 201.337 253.661 202.002 252.869L275.285 165.647Z" fill="#F1F5FF"/>
<path opacity="0.5" d="M258.685 151.747C259.358 150.945 259.262 149.75 258.469 149.066C257.661 148.369 256.439 148.468 255.753 149.285L182.519 236.548C181.847 237.348 181.956 238.542 182.76 239.208C183.557 239.868 184.737 239.761 185.402 238.969L258.685 151.747Z" fill="#F1F5FF"/>
<path d="M351.572 152.238H304.561C303.092 152.238 301.917 153.414 301.917 154.883V217.319C301.917 218.788 303.092 219.964 304.561 219.964H351.572C353.041 219.964 354.216 218.788 354.216 217.319V154.883C354.143 153.414 352.968 152.238 351.572 152.238Z" fill="#F7931E"/>
<path d="M350.465 150.182H305.888C303.127 150.182 300.888 152.42 300.888 155.182V215.919C300.888 218.68 303.127 220.919 305.888 220.919H350.465C353.227 220.919 355.465 218.68 355.465 215.919V155.182C355.465 152.42 353.227 150.182 350.465 150.182Z" fill="#F1F5FF"/>
<path d="M297 142.5H363.54C365.473 142.5 367.04 144.067 367.04 146V228.7C367.04 230.633 365.473 232.2 363.54 232.2H297C295.067 232.2 293.5 230.633 293.5 228.7V146C293.5 144.067 295.067 142.5 297 142.5Z" fill="#F1F5FF" stroke="#212431" stroke-width="3" stroke-linecap="round" stroke-linejoin="round"/>
<path d="M342.532 159.144H312.793C310.031 159.144 307.793 161.382 307.793 164.144V206.59C307.793 209.352 310.031 211.59 312.793 211.59H342.532C345.293 211.59 347.532 209.352 347.532 206.59V164.144C347.532 161.382 345.293 159.144 342.532 159.144Z" fill="#FF5E94"/>
<path opacity="0.2" d="M347.385 183.232C347.385 182.509 347.228 181.794 346.925 181.138L344.443 175.756C342.597 171.754 336.852 171.923 335.246 176.028L329.417 190.926C328.195 194.047 324.308 195.106 321.672 193.036L315.881 188.487C312.6 185.91 307.793 188.248 307.793 192.419V206.443C307.793 209.204 310.031 211.443 312.793 211.443H342.385C345.146 211.443 347.385 209.204 347.385 206.443V183.232Z" fill="#F1F5FF"/>
<path opacity="0.46" d="M313.791 166.524C314.322 164.265 316.338 162.669 318.658 162.669H329.257C332.698 162.669 335.11 166.064 333.978 169.314L329.019 183.548C327.878 186.824 323.828 187.97 321.138 185.778L313.596 179.63C312.113 178.421 311.45 176.472 311.888 174.609L313.791 166.524Z" fill="#F1F5FF"/>
<path opacity="0.5" d="M358.096 161.052C359.322 159.59 359.137 157.413 357.681 156.18C356.216 154.938 354.02 155.126 352.786 156.597L302.957 216C301.732 217.462 301.917 219.639 303.372 220.872C304.838 222.113 307.034 221.926 308.268 220.455L358.096 161.052Z" fill="#F1F5FF"/>
<path opacity="0.5" d="M364.117 162.413C364.611 161.826 364.532 160.948 363.941 160.459C363.356 159.975 362.49 160.053 362.001 160.635L309.463 223.197C308.985 223.766 309.055 224.614 309.619 225.097C310.191 225.587 311.053 225.517 311.538 224.94L364.117 162.413Z" fill="#F1F5FF"/>
<path opacity="0.5" d="M352.179 152.384C352.656 151.816 352.587 150.969 352.023 150.485C351.451 149.995 350.589 150.066 350.105 150.643L297.565 213.278C297.089 213.845 297.168 214.692 297.74 215.162C298.304 215.625 299.135 215.548 299.604 214.99L352.179 152.384Z" fill="#F1F5FF"/>
<path d="M605.2 341.5H253.7V349.7H605.2V341.5Z" fill="#9494FF"/>
<path d="M464.9 320.4H426.7V341.8H464.9V320.4Z" fill="#656A7F"/>
<path d="M518.4 232.2H379.4C377.9 232.2 376.7 233.4 376.7 234.9V321.2C376.7 322.7 377.9 323.9 379.4 323.9H518.4C519.9 323.9 521.1 322.7 521.1 321.2V234.9C521 233.3 519.8 232.2 518.4 232.2Z" fill="#AAAFC1"/>
<path d="M515.6 316.8H381.9C380.2 316.8 378.9 315.4 378.9 313.8V237.5C378.9 235.8 380.3 234.5 381.9 234.5H515.5C517.2 234.5 518.5 235.9 518.5 237.5V313.8C518.6 315.4 517.3 316.8 515.6 316.8Z" fill="#37374F"/>
<path d="M390.4 237.8H383C382.6 237.8 382.2 237.5 382.2 237C382.2 236.6 382.5 236.2 383 236.2H390.4C390.8 236.2 391.2 236.5 391.2 237C391.2 237.4 390.9 237.8 390.4 237.8Z" fill="#F1F5FF"/>
<path d="M403.1 237.8H395.7C395.3 237.8 394.9 237.5 394.9 237C394.9 236.6 395.2 236.2 395.7 236.2H403.1C403.5 236.2 403.9 236.5 403.9 237C403.9 237.4 403.5 237.8 403.1 237.8Z" fill="#F1F5FF"/>
<path d="M414.8 237.8H407.4C407 237.8 406.6 237.5 406.6 237C406.6 236.6 406.9 236.2 407.4 236.2H414.8C415.2 236.2 415.6 236.5 415.6 237C415.6 237.4 415.2 237.8 414.8 237.8Z" fill="#F1F5FF"/>
<path d="M427.5 237.8H420.1C419.7 237.8 419.3 237.5 419.3 237C419.3 236.6 419.6 236.2 420.1 236.2H427.5C427.9 236.2 428.3 236.5 428.3 237C428.2 237.4 427.9 237.8 427.5 237.8Z" fill="#F1F5FF"/>
<path d="M440.3 237.8H432.9C432.5 237.8 432.1 237.5 432.1 237C432.1 236.6 432.4 236.2 432.9 236.2H440.3C440.7 236.2 441.1 236.5 441.1 237C441.1 237.4 440.7 237.8 440.3 237.8Z" fill="#F1F5FF"/>
<path d="M452.3 237.8H445C444.6 237.8 444.2 237.5 444.2 237C444.2 236.6 444.5 236.2 445 236.2H452.4C452.8 236.2 453.2 236.5 453.2 237C453.1 237.4 452.8 237.8 452.3 237.8Z" fill="#F1F5FF"/>
<path d="M393.4 242H383V306.8H393.4V242Z" stroke="#F1F5FF" stroke-width="0.2565" stroke-miterlimit="10"/>
<path d="M383.1 247.2H393.6" stroke="#F1F5FF" stroke-width="0.2565" stroke-miterlimit="10"/>
<path d="M383.1 252H393.6" stroke="#F1F5FF" stroke-width="0.2565" stroke-miterlimit="10"/>
<path d="M383.1 256.8H393.6" stroke="#F1F5FF" stroke-width="0.2565" stroke-miterlimit="10"/>
<path d="M383.1 261.6H393.6" stroke="#F1F5FF" stroke-width="0.2565" stroke-miterlimit="10"/>
<path d="M383.1 266.3H393.6" stroke="#F1F5FF" stroke-width="0.2565" stroke-miterlimit="10"/>
<path d="M383.1 271.1H393.6" stroke="#F1F5FF" stroke-width="0.2565" stroke-miterlimit="10"/>
<path d="M383.1 275.9H393.6" stroke="#F1F5FF" stroke-width="0.2565" stroke-miterlimit="10"/>
<path d="M383.1 280.7H393.6" stroke="#F1F5FF" stroke-width="0.2565" stroke-miterlimit="10"/>
<path d="M383.1 285.8H393.6" stroke="#F1F5FF" stroke-width="0.2565" stroke-miterlimit="10"/>
<path d="M383.1 290.6H393.6" stroke="#F1F5FF" stroke-width="0.2565" stroke-miterlimit="10"/>
<path d="M383.1 295.4H393.6" stroke="#F1F5FF" stroke-width="0.2565" stroke-miterlimit="10"/>
<path d="M383.1 300.2H393.6" stroke="#F1F5FF" stroke-width="0.2565" stroke-miterlimit="10"/>
<path d="M510.4 285.3H483.4V297.6H510.4V285.3Z" stroke="#F1F5FF" stroke-width="0.2565" stroke-miterlimit="10"/>
<path d="M483.3 288.3H510.4" stroke="#F1F5FF" stroke-width="0.2565" stroke-miterlimit="10"/>
<path d="M489.5 291.599H486.6C486.2 291.599 486 291.299 486 290.999C486 290.599 486.3 290.399 486.6 290.399H489.5C489.9 290.399 490.1 290.699 490.1 290.999C490.1 291.299 489.9 291.599 489.5 291.599Z" fill="#F1F5FF"/>
<path d="M489.5 294.5H486.6C486.2 294.5 486 294.2 486 293.9C486 293.5 486.3 293.3 486.6 293.3H489.5C489.9 293.3 490.1 293.6 490.1 293.9C490.1 294.2 489.9 294.5 489.5 294.5Z" fill="#F1F5FF"/>
<path d="M498 291.599H495.1C494.7 291.599 494.5 291.299 494.5 290.999C494.5 290.599 494.8 290.399 495.1 290.399H498C498.4 290.399 498.6 290.699 498.6 290.999C498.6 291.299 498.3 291.599 498 291.599Z" fill="#F1F5FF"/>
<path d="M498 294.5H495.1C494.7 294.5 494.5 294.2 494.5 293.9C494.5 293.5 494.8 293.3 495.1 293.3H498C498.4 293.3 498.6 293.6 498.6 293.9C498.6 294.2 498.3 294.5 498 294.5Z" fill="#F1F5FF"/>
<path d="M506.4 291.599H503.5C503.1 291.599 502.9 291.299 502.9 290.999C502.9 290.599 503.2 290.399 503.5 290.399H506.4C506.8 290.399 507 290.699 507 290.999C507 291.299 506.7 291.599 506.4 291.599Z" fill="#F1F5FF"/>
<path d="M506.4 294.5H503.5C503.1 294.5 502.9 294.2 502.9 293.9C502.9 293.5 503.2 293.3 503.5 293.3H506.4C506.8 293.3 507 293.6 507 293.9C507 294.2 506.7 294.5 506.4 294.5Z" fill="#F1F5FF"/>
<path d="M497.2 249.899H469.9V277.499H497.2V249.899Z" fill="#FFB81D"/>
<path d="M469.9 251.6L483.2 263L491.1 247.6L469.9 251.6Z" fill="#DCDEE6"/>
<path d="M483.2 263L487.7 279.4L501.6 263.5L494.7 250L489.4 247.8L483.2 263Z" fill="#9494FF"/>
<path d="M488.6 249.699L485.1 258.399L486.4 259.699L493.9 253.399L488.6 249.699Z" fill="#FF6C95"/>
<path d="M483.1 268.899C486.469 268.899 489.2 266.168 489.2 262.799C489.2 259.43 486.469 256.699 483.1 256.699C479.731 256.699 477 259.43 477 262.799C477 266.168 479.731 268.899 483.1 268.899Z" fill="#37374F"/>
<path d="M502.9 241.6H463.9V280.6H502.9V241.6Z" stroke="#F1F5FF" stroke-width="0.2565" stroke-miterlimit="10"/>
<path d="M463.9 245.8H502.8" stroke="#F1F5FF" stroke-width="0.2565" stroke-miterlimit="10"/>
<path d="M472.2 244.1H465.9C465.7 244.1 465.5 243.9 465.5 243.7C465.5 243.5 465.7 243.3 465.9 243.3H472.2C472.4 243.3 472.6 243.5 472.6 243.7C472.7 243.9 472.5 244.1 472.2 244.1Z" fill="#F1F5FF"/>
<path d="M483.6 244.1H477.3C477.1 244.1 476.9 243.9 476.9 243.7C476.9 243.5 477.1 243.3 477.3 243.3H483.6C483.8 243.3 484 243.5 484 243.7C484 243.9 483.8 244.1 483.6 244.1Z" fill="#F1F5FF"/>
<path d="M493.6 244.1H487.3C487.1 244.1 486.9 243.9 486.9 243.7C486.9 243.5 487.1 243.3 487.3 243.3H493.6C493.8 243.3 494 243.5 494 243.7C494.1 243.9 493.9 244.1 493.6 244.1Z" fill="#F1F5FF"/>
<path d="M505.4 272.8L508.3 280.6L509.1 278.4L511.7 281.3L513.1 280L510.5 277.1L512.9 276.5L505.4 272.8Z" fill="#F1F5FF" stroke="#1A1A1A" stroke-width="0.1162" stroke-miterlimit="10"/>
<path d="M501 277.8C501 277.2 500.5 276.6 499.8 276.6C499.2 276.6 498.6 277.1 498.6 277.8C498.6 278.4 499.1 279 499.8 279C500.5 279 501 278.5 501 277.8Z" stroke="#F1F5FF" stroke-width="0.5131" stroke-miterlimit="10" stroke-linecap="round" stroke-linejoin="round" stroke-dasharray="3.08 3.08"/>
<path d="M496.6 277.8C496.6 277.2 496.1 276.6 495.4 276.6C494.8 276.6 494.2 277.1 494.2 277.8C494.2 278.4 494.7 279 495.4 279C496.1 279 496.6 278.5 496.6 277.8Z" stroke="#F1F5FF" stroke-width="0.5131" stroke-miterlimit="10" stroke-linecap="round" stroke-linejoin="round" stroke-dasharray="3.08 3.08"/>
<path d="M480.9 285.2H459.7V287.7V307.8H480.9V285.2Z" stroke="#F1F5FF" stroke-width="0.2565" stroke-miterlimit="10"/>
<path d="M459.6 286.8H480.9" stroke="#F1F5FF" stroke-width="0.2565" stroke-miterlimit="10"/>
<path d="M466.8 291.5C466.8 290.2 465.7 289.1 464.4 289.1C463.1 289.1 462 290.2 462 291.5C462 292.8 463.1 293.9 464.4 293.9C465.7 293.9 466.8 292.8 466.8 291.5Z" fill="#F1F5FF"/>
<path d="M470.7 293.9C471.528 293.9 472.2 293.229 472.2 292.4C472.2 291.572 471.528 290.9 470.7 290.9C469.872 290.9 469.2 291.572 469.2 292.4C469.2 293.229 469.872 293.9 470.7 293.9Z" fill="#F1F5FF"/>
<path d="M475.6 293.9C476.042 293.9 476.4 293.542 476.4 293.1C476.4 292.658 476.042 292.3 475.6 292.3C475.158 292.3 474.8 292.658 474.8 293.1C474.8 293.542 475.158 293.9 475.6 293.9Z" fill="#F1F5FF"/>
<path d="M466.1 297.4H462.3V301.2H466.1V297.4Z" fill="#F1F5FF"/>
<path d="M472.1 298.3H469.2V301.2H472.1V298.3Z" fill="#F1F5FF"/>
<path d="M476.4 299.8H474.9V301.3H476.4V299.8Z" fill="#F1F5FF"/>
<path d="M459.7 305.1H480.7" stroke="#F1F5FF" stroke-width="0.2565" stroke-miterlimit="10"/>
<path d="M453.4 242.7H400.3C399.1 242.7 398.2 243.6 398.2 244.8V305.3C398.2 306.5 399.1 307.4 400.3 307.4H453.4C454.6 307.4 455.5 306.5 455.5 305.3V244.8C455.5 243.6 454.5 242.7 453.4 242.7Z" fill="#E1E9FF"/>
<path d="M423.8 245.5H402.6V247.9V268H423.8V245.5Z" stroke="#F1F5FF" stroke-width="0.2565" stroke-miterlimit="10"/>
<path d="M402.6 247.1H423.8" stroke="#F1F5FF" stroke-width="0.2565" stroke-miterlimit="10"/>
<path d="M409.7 251.7C409.7 250.4 408.6 249.3 407.3 249.3C406 249.3 404.9 250.4 404.9 251.7C404.9 253 406 254.1 407.3 254.1C408.6 254.1 409.7 253.1 409.7 251.7Z" fill="#F1F5FF"/>
<path d="M413.7 254.2C414.528 254.2 415.2 253.529 415.2 252.7C415.2 251.872 414.528 251.2 413.7 251.2C412.872 251.2 412.2 251.872 412.2 252.7C412.2 253.529 412.872 254.2 413.7 254.2Z" fill="#F1F5FF"/>
<path d="M418.6 254.1C419.042 254.1 419.4 253.742 419.4 253.3C419.4 252.858 419.042 252.5 418.6 252.5C418.158 252.5 417.8 252.858 417.8 253.3C417.8 253.742 418.158 254.1 418.6 254.1Z" fill="#F1F5FF"/>
<path d="M409 257.7H405.2V261.5H409V257.7Z" fill="#F1F5FF"/>
<path d="M415 258.6H412.1V261.5H415V258.6Z" fill="#F1F5FF"/>
<path d="M419.3 260H417.8V261.5H419.3V260Z" fill="#F1F5FF"/>
<path d="M402.6 265.4H423.7" stroke="#F1F5FF" stroke-width="0.2565" stroke-miterlimit="10"/>
<path d="M447.2 267.7H426.1V270.1V290.3H447.2V267.7Z" stroke="#F1F5FF" stroke-width="0.2565" stroke-miterlimit="10"/>
<path d="M426 269.3H447.2" stroke="#F1F5FF" stroke-width="0.2565" stroke-miterlimit="10"/>
<path d="M433.1 274C433.1 272.7 432 271.6 430.7 271.6C429.4 271.6 428.3 272.7 428.3 274C428.3 275.3 429.4 276.4 430.7 276.4C432 276.4 433.1 275.3 433.1 274Z" fill="#F1F5FF"/>
<path d="M437.1 276.4C437.928 276.4 438.6 275.729 438.6 274.9C438.6 274.072 437.928 273.4 437.1 273.4C436.271 273.4 435.6 274.072 435.6 274.9C435.6 275.729 436.271 276.4 437.1 276.4Z" fill="#F1F5FF"/>
<path d="M442 276.4C442.442 276.4 442.8 276.042 442.8 275.6C442.8 275.158 442.442 274.8 442 274.8C441.558 274.8 441.2 275.158 441.2 275.6C441.2 276.042 441.558 276.4 442 276.4Z" fill="#F1F5FF"/>
<path d="M432.4 279.9H428.6V283.7H432.4V279.9Z" fill="#F1F5FF"/>
<path d="M438.5 280.8H435.6V283.7H438.5V280.8Z" fill="#F1F5FF"/>
<path d="M442.7 282.3H441.2V283.8H442.7V282.3Z" fill="#F1F5FF"/>
<path d="M426.1 287.6H447.1" stroke="#F1F5FF" stroke-width="0.2565" stroke-miterlimit="10"/>
<path d="M423.8 271H402.6V273.4V293.6H423.8V271Z" stroke="#F1F5FF" stroke-width="0.2565" stroke-miterlimit="10"/>
<path d="M402.5 272.6H423.8" stroke="#F1F5FF" stroke-width="0.2565" stroke-miterlimit="10"/>
<path d="M409.6 277.2C409.6 275.9 408.5 274.8 407.2 274.8C405.9 274.8 404.8 275.9 404.8 277.2C404.8 278.5 405.9 279.6 407.2 279.6C408.5 279.6 409.6 278.6 409.6 277.2Z" fill="#F1F5FF"/>
<path d="M413.6 279.7C414.428 279.7 415.1 279.029 415.1 278.2C415.1 277.372 414.428 276.7 413.6 276.7C412.771 276.7 412.1 277.372 412.1 278.2C412.1 279.029 412.771 279.7 413.6 279.7Z" fill="#F1F5FF"/>
<path d="M418.5 279.6C418.942 279.6 419.3 279.242 419.3 278.8C419.3 278.358 418.942 278 418.5 278C418.058 278 417.7 278.358 417.7 278.8C417.7 279.242 418.058 279.6 418.5 279.6Z" fill="#F1F5FF"/>
<path d="M409 283.2H405.2V287H409V283.2Z" fill="#F1F5FF"/>
<path d="M415 284.1H412.1V287H415V284.1Z" fill="#F1F5FF"/>
<path d="M419.2 285.5H417.7V287H419.2V285.5Z" fill="#F1F5FF"/>
<path d="M402.6 290.9H423.6" stroke="#F1F5FF" stroke-width="0.2565" stroke-miterlimit="10"/>
<path d="M532.1 338.9H445.1V341.8H532.1V338.9Z" fill="#AAAFC1"/>
<path d="M531.3 338.2H527.1V340.3H531.3V338.2Z" fill="#AAAFC1"/>
<path d="M526.7 338.2H522.5V340.3H526.7V338.2Z" fill="#AAAFC1"/>
<path d="M522.2 338.2H518V340.3H522.2V338.2Z" fill="#AAAFC1"/>
<path d="M517.5 338.2H513.3V340.3H517.5V338.2Z" fill="#AAAFC1"/>
<path d="M512.8 338.2H508.6V340.3H512.8V338.2Z" fill="#AAAFC1"/>
<path d="M508.2 338.2H504V340.3H508.2V338.2Z" fill="#AAAFC1"/>
<path d="M479.4 338.2H475.2V340.3H479.4V338.2Z" fill="#AAAFC1"/>
<path d="M474.5 338.2H470.3V340.3H474.5V338.2Z" fill="#AAAFC1"/>
<path d="M469.6 338.2H465.4V340.3H469.6V338.2Z" fill="#AAAFC1"/>
<path d="M464.7 338.2H460.5V340.3H464.7V338.2Z" fill="#AAAFC1"/>
<path d="M459.8 338.2H455.6V340.3H459.8V338.2Z" fill="#AAAFC1"/>
<path d="M454.9 338.2H450.7V340.3H454.9V338.2Z" fill="#AAAFC1"/>
<path d="M503.4 338.2H480.1V340.3H503.4V338.2Z" fill="#AAAFC1"/>
<path d="M205.2 440.501H315.1V436.201C315.1 423.401 304.7 413.001 291.9 412.901L231.1 412.601C226.5 412.601 222.6 409.301 221.9 404.801C216.7 373.601 194.5 260.801 154 287.401L205.2 440.501Z" fill="#F1F5FF"/>
<path d="M276.2 298.9C276.2 298.9 278 297.3 279 297.8C280.1 298.3 291.9 305 292.4 305.9C292.9 306.8 293.3 309.5 293.3 309.5L286.4 308.1L279.5 305.4L277.4 301.8L276.2 298.9Z" fill="#BEC7FA"/>
<path d="M358.9 307.101H280.1L257.8 360.001H343.5L363.2 313.401C364.4 310.401 362.2 307.101 358.9 307.101Z" fill="#656A7F"/>
<path d="M350.3 310.8L283.8 310.9C283.4 310.9 283 311.1 282.9 311.5L265.9 354.9C265.7 355.5 266.1 356.2 266.8 356.2L333.3 356.1C333.7 356.1 334.1 355.9 334.2 355.5L351.2 312.1C351.4 311.5 350.9 310.8 350.3 310.8Z" fill="#AAAFC1"/>
<path d="M367 508.3C367 508.3 370.3 508.6 359.5 485.4L376 474.8C376 474.8 385.2 506.2 386.1 508.6C387 511 386.9 516 386.9 516L373.6 518.7C373.6 518.7 370 515.4 370 514.9C370 514.4 367 508.3 367 508.3Z" fill="#BEC7FA"/>
<path d="M367.4 506.7C367.4 506.7 363.4 517.5 364.8 531.8C364.8 531.8 366.5 533.7 373.1 534.1C379.7 534.5 386.5 534.9 389.3 535.6C392.1 536.3 406.7 541.9 417.1 535.1C417.1 535.1 417.1 528.2 415.1 526.5C413.1 524.8 391.7 514.1 390.5 512C389.3 509.9 386.5 505 384.7 505C382.9 505.1 375.7 507.8 376 508.9C376.3 510 379 511.6 379 511.6C379 511.6 368.3 510.9 367.4 506.7Z" fill="#00C7B1"/>
<path d="M388.9 530.8C386 530.1 379.1 529.7 372.4 529.3C367.8 529 365.5 528 364.6 527.5C364.6 528.9 364.7 530.3 364.9 531.8C364.9 531.8 366.6 533.7 373.2 534.1C379.8 534.5 386.6 534.9 389.4 535.6C392.2 536.3 406.8 541.9 417.2 535.1C417.2 535.1 417.2 532.8 416.8 530.6C406.3 537 391.7 531.5 388.9 530.8Z" fill="#F1F5FF"/>
<path d="M400.8 522.6L403.6 519.8" stroke="#F1F5FF" stroke-width="0.9796" stroke-miterlimit="10" stroke-linecap="round" stroke-linejoin="round"/>
<path d="M397.9 521.2L400.7 518.4" stroke="#F1F5FF" stroke-width="0.9796" stroke-miterlimit="10" stroke-linecap="round" stroke-linejoin="round"/>
<path d="M395.2 519.8L398.2 516.7" stroke="#F1F5FF" stroke-width="0.9796" stroke-miterlimit="10" stroke-linecap="round" stroke-linejoin="round"/>
<path d="M392.3 518L395.4 515" stroke="#F1F5FF" stroke-width="0.9796" stroke-miterlimit="10" stroke-linecap="round" stroke-linejoin="round"/>
<path d="M389.3 516.6L392.6 513.5" stroke="#F1F5FF" stroke-width="0.9796" stroke-miterlimit="10" stroke-linecap="round" stroke-linejoin="round"/>
<path d="M386 514.9L390.4 511.7" stroke="#F1F5FF" stroke-width="0.9796" stroke-miterlimit="10" stroke-linecap="round" stroke-linejoin="round"/>
<path d="M382.1 513.4C382.1 513.4 386.5 510 388.9 509.3" stroke="#F1F5FF" stroke-width="0.9796" stroke-miterlimit="10" stroke-linecap="round" stroke-linejoin="round"/>
<path d="M387 510.1C386 509.4 384.8 509.2 383.6 509.5C382.4 509.8 381.5 510.7 381.1 511.8C380.7 512.8 380.7 513.9 380.8 514.9C380.8 515.1 380.8 515.4 380.9 515.6C381.2 516.1 381.9 516.2 382.4 515.9C382.9 515.6 383.2 515.1 383.5 514.6C384.6 513.1 385.6 511.4 387 510.1ZM387 510.1C388.2 508.7 389.9 507.6 391.7 507.2C392.2 507.1 392.6 507.1 393.1 507.2C393.5 507.3 393.9 507.7 394 508.2C394.1 509 393.3 509.5 392.6 509.7C391.3 510.1 390 510.2 388.7 509.9C388.3 509.8 388 509.7 387.6 509.8C387.2 509.9 386.9 510.2 386.7 510.5C385.8 511.8 385.7 513.5 385.8 515C385.8 516.6 386 518.2 385.6 519.7C385.2 521.3 384.2 522.7 384.2 524.3" stroke="#F1F5FF" stroke-width="0.9796" stroke-miterlimit="10" stroke-linecap="round" stroke-linejoin="round"/>
<path d="M376.3 471.5C376.3 471.5 379.6 471.8 368.9 448.8L385.3 438.2C385.3 438.2 394.4 469.4 395.3 471.8C396.2 474.2 396.1 479.1 396.1 479.1L382.9 481.8C382.9 481.8 379.4 478.5 379.3 478C379.3 477.6 376.3 471.5 376.3 471.5Z" fill="#BEC7FA"/>
<path d="M376.8 469.9C376.8 469.9 372.9 480.6 374.2 494.9C374.2 494.9 375.9 496.8 382.4 497.2C388.9 497.6 395.8 498 398.5 498.7C401.3 499.4 415.8 505 426.1 498.2C426.1 498.2 426.1 491.4 424.1 489.7C422.1 488 400.9 477.3 399.6 475.3C398.4 473.2 395.6 468.3 393.8 468.4C392 468.5 384.8 471.2 385.2 472.3C385.6 473.4 388.2 474.9 388.2 474.9C388.2 474.9 377.6 474.1 376.8 469.9Z" fill="#00C7B1"/>
<path d="M398.1 493.9C395.3 493.2 388.3 492.8 381.7 492.5C377.1 492.2 374.9 491.2 373.9 490.7C373.9 492.1 374 493.5 374.2 494.9C374.2 494.9 375.9 496.8 382.4 497.2C388.9 497.6 395.8 498 398.5 498.7C401.3 499.4 415.8 505 426.1 498.2C426.1 498.2 426.1 495.9 425.7 493.7C415.4 500 400.9 494.6 398.1 493.9Z" fill="#F1F5FF"/>
<path d="M410 485.7L412.7 483" stroke="#F1F5FF" stroke-width="0.9739" stroke-miterlimit="10" stroke-linecap="round" stroke-linejoin="round"/>
<path d="M407 484.4L409.8 481.6" stroke="#F1F5FF" stroke-width="0.9739" stroke-miterlimit="10" stroke-linecap="round" stroke-linejoin="round"/>
<path d="M404.4 482.9L407.3 479.8" stroke="#F1F5FF" stroke-width="0.9739" stroke-miterlimit="10" stroke-linecap="round" stroke-linejoin="round"/>
<path d="M401.4 481.2L404.5 478.1" stroke="#F1F5FF" stroke-width="0.9739" stroke-miterlimit="10" stroke-linecap="round" stroke-linejoin="round"/>
<path d="M398.5 479.7L401.8 476.7" stroke="#F1F5FF" stroke-width="0.9739" stroke-miterlimit="10" stroke-linecap="round" stroke-linejoin="round"/>
<path d="M395.2 478.1L399.6 474.9" stroke="#F1F5FF" stroke-width="0.9739" stroke-miterlimit="10" stroke-linecap="round" stroke-linejoin="round"/>
<path d="M391.4 476.6C391.4 476.6 395.8 473.3 398.2 472.5" stroke="#F1F5FF" stroke-width="0.9739" stroke-miterlimit="10" stroke-linecap="round" stroke-linejoin="round"/>
<path d="M396.2 473.3C395.2 472.6 394 472.4 392.9 472.7C391.8 473 390.8 473.9 390.4 475C390 476 390 477.1 390.1 478.1C390.1 478.3 390.1 478.6 390.2 478.8C390.5 479.3 391.2 479.4 391.7 479.1C392.2 478.8 392.5 478.3 392.8 477.9C393.8 476.2 394.8 474.6 396.2 473.3ZM396.2 473.3C397.4 472 399.1 470.8 400.9 470.5C401.4 470.4 401.8 470.4 402.3 470.5C402.7 470.6 403.1 471 403.2 471.5C403.3 472.2 402.5 472.8 401.8 473C400.6 473.4 399.2 473.5 397.9 473.2C397.5 473.1 397.2 473 396.8 473.1C396.4 473.2 396.1 473.5 395.9 473.8C395 475.1 394.9 476.7 395 478.3C395 479.9 395.2 481.4 394.8 482.9C394.4 484.5 393.4 485.9 393.4 487.5" stroke="#F1F5FF" stroke-width="0.9739" stroke-miterlimit="10" stroke-linecap="round" stroke-linejoin="round"/>
<path d="M255.6 326.3L269.6 317.4C269.6 317.4 278.8 316 281.3 314.7C283.8 313.5 290.7 309.5 291.6 309.4C291.6 309.4 291.2 306.2 284.1 309C277 311.8 279.3 310.1 279.3 310.1L286.4 306.4L276.1 298.9L265.3 311.7L249 319.7L255.6 326.3Z" fill="#BEC7FA"/>
<path d="M235 289.3C235 289.3 250.4 306.4 257.7 311.1C265 315.8 259.1 331.9 259.1 331.9L239.7 329.1C239.7 329.1 234.7 317.3 234.7 313.9C234.8 310.7 235 289.3 235 289.3Z" fill="#EDA71B"/>
<path d="M230.4 284.5L235.1 263.6L220.5 250.2L203.4 278.3L230.4 284.5Z" fill="#BEC7FA"/>
<path d="M224.4 384.6C224.4 384.6 227.6 416.6 246.4 418.4C265.2 420.2 336.3 387.5 336.3 387.5L373.6 466.7L393.1 458.5C393.1 458.5 362.9 364.3 356.5 357.2C350.1 350.1 289.3 361.5 261.3 368.9C233.2 376.4 224.4 384.6 224.4 384.6Z" fill="#5A52FF"/>
<path d="M216.9 278C226.8 278.7 235 283.3 239.6 296.1C244.2 308.9 258.8 325.2 258.8 325.2L253.5 334.4L271.3 365.8C271.3 365.8 259.2 394 226.5 404.7C226.5 404.7 219.4 367.7 218 365.3C216.6 362.8 200.4 321.9 196.7 310.9C190.8 293.4 204 276.9 204 276.9L216.9 278Z" fill="#FFB81D"/>
<path d="M257.4 327.4C257.4 327.4 249.6 337.7 238.6 342.3C238.6 342.3 259.6 365.4 263.8 366.5C268.1 367.6 321.4 341.3 321.4 341.3L318.2 333.5L270.6 344.2L257.4 327.4Z" fill="#BEC7FA"/>
<path d="M268.7 414.1L334.5 416.5C334.5 416.5 353 479 363.3 501.8L383.6 499C383.6 499 362.6 401.6 360.5 397C358.4 392.4 336.3 387.4 336.3 387.4C336.3 387.4 289.7 407.4 268.7 414.1Z" fill="#4949F2"/>
<path d="M252.6 216.7C261 224.9 261.2 229.5 261.1 232.5C261 235.5 257.2 242.5 257.4 244.6C257.8 249.2 260.6 252.2 260.6 252.8C260.6 253.4 258.8 255.3 256.7 255.2C256.7 255.2 251.3 271.1 246.1 271.1C243.5 271.1 231.7 262.8 230.6 262.1C229.5 261.4 218.7 250.3 218.7 250.3C218.7 250.3 206.1 228.4 223.5 214.6C237.2 203.8 252.6 216.7 252.6 216.7Z" fill="#BEC7FA"/>
<path d="M326.5 333.2C326.4 333.1 326.4 332.9 326.5 332.8L327.2 332.2C327.3 332.1 327.4 332.1 327.5 332.2C327.6 332.3 327.6 332.4 327.5 332.5L326.8 333.1C326.7 333.3 326.5 333.3 326.5 333.2Z" fill="#F1F5FF"/>
<path d="M351.9 312.2L351.8 312C351.5 311.6 351 311.6 350.6 311.9L349.6 312.8C349.5 312.9 349.5 313.1 349.6 313.2L350.5 314.2C350.6 314.3 350.8 314.3 350.9 314.2L351.9 313.3C352.1 313.1 352.2 312.6 351.9 312.2Z" fill="#AAAFC1"/>
<path d="M338 325.501L351 314.701C351.1 314.601 351.1 314.501 351 314.301L349.5 312.501C349.4 312.401 349.3 312.401 349.1 312.501L337 322.501C335.3 323.901 333.5 325.301 331.6 326.501L328.5 328.601L331.2 331.801L334.6 328.401C335.8 327.501 336.9 326.501 338 325.501Z" fill="#656A7F"/>
<path d="M331.3 331.9L328.6 328.7L327 332.2L327.5 332.8L331.3 331.9Z" fill="#AAAFC1"/>
<path opacity="0.22" d="M349.93 313.207L349.611 312.822L329.378 329.625L329.697 330.01L349.93 313.207Z" fill="#F1F5FF"/>
<path d="M319.9 341.8L337 338.6L338.4 324.5L327.4 327.7L330.3 324.9C330.3 324.9 337.9 325 337.1 321.3L327.2 322.1C327.2 322.1 319.9 327.6 317.4 333.6C315.1 339.6 319.9 341.8 319.9 341.8Z" fill="#BEC7FA"/>
<path d="M340.7 335.1L334.3 336.3C333.6 336.4 333.1 337.1 333.3 337.8V337.9C333.4 338.6 334.1 339.1 334.8 338.9L341.2 337.7C341.9 337.6 342.4 336.9 342.2 336.2V336.1C342.1 335.4 341.4 335 340.7 335.1Z" fill="#BEC7FA"/>
<path d="M234.6 244.1C238 231.9 223.1 251.6 223.1 251.6L225 256C225 256 228.7 267.4 232.7 274.6L234.9 265.1C238.9 267.8 244.4 271.4 246.1 271.1C246.4 271 246.8 270.9 247.1 270.7C246.9 270.6 231.2 256.2 234.6 244.1Z" fill="#ABB8EF"/>
<path d="M344.1 322.5L337 325C336.3 325.3 335.9 326.1 336.1 326.8L336.2 327.1C336.5 327.8 337.3 328.2 338 328L345.1 325.5C345.8 325.2 346.2 324.4 346 323.7L345.9 323.4C345.6 322.6 344.8 322.3 344.1 322.5Z" fill="#BEC7FA"/>
<path d="M342.9 331.8L342.8 331.5C342.6 330.9 342.9 329.4 342.7 328.7L342.6 328.4C342.3 327.7 341.5 327.3 340.8 327.5L333.7 330C333 330.3 332.6 331.1 332.8 331.8L332.9 332.1C333.1 332.7 333.7 333.1 334.3 333L333.9 333.2C333.2 333.5 332.8 334.3 333 335L333.1 335.3C333.4 336 334.2 336.4 334.9 336.2L342 333.7C342.8 333.3 343.2 332.5 342.9 331.8Z" fill="#BEC7FA"/>
<path d="M190.9 255.8C198.4 250.6 204.3 243.4 207.7 235.2C211.6 225.9 215.2 216.5 225.4 211.5C239.1 204.7 250.3 214.2 259.7 222.7C260.3 223.3 261 223.9 261 224.7C261 225.6 260.8 228.2 260.1 228.8C253 234.5 248.5 242 237.4 244.1C228.4 245.8 229 258.7 230.8 264.8C231.9 268.5 234.4 272 238 273.9C238.2 274 238.1 274.3 237.9 274.3C233.7 273.8 230.1 270.8 228.5 267.2C226.7 263.3 226.8 258.8 228 254.7C226.3 265.1 218.7 273.7 212.8 282.7C207.1 291.3 202.6 301.8 206.1 311.2C206.2 311.5 205.8 311.8 205.6 311.6C203.4 309.7 201.5 307.6 199.9 305.3C199.5 308.5 200.6 311.8 202.8 314.2C203.1 314.5 202.7 314.9 202.4 314.7C198.5 312.3 195.1 309.2 192.6 305.6C192 308 192.1 310.5 192.9 312.8C193 313.1 192.6 313.4 192.4 313.2C187.6 308.9 182.9 304.2 180.8 298.4C178.6 292.4 179.4 285.7 181.7 279.7C184 273.7 187.7 268.3 191.3 262.9C187.5 265.6 183.6 268.3 180.5 271.7C177.8 274.7 175.8 278.3 175.4 282.2C175.4 282.6 174.8 282.6 174.7 282.3C172.9 276.4 174.3 269.7 178.5 265C181.7 261.2 186.6 258.8 190.9 255.8Z" fill="#202094"/>
<path d="M246 242.801C247.3 241.501 248.6 240.201 250 239.001C252.3 237.001 255 235.401 257 233.101C259 230.801 260.4 227.701 259.6 224.701C259.4 224.001 259.1 223.301 259.3 222.601C260.4 223.501 260.9 225.001 260.9 226.401C260.9 227.801 260.4 229.201 259.8 230.501C255.9 238.601 246.2 242.901 242.9 251.301C242.4 252.701 242 254.301 242.1 255.801C242.2 257.001 240.5 257.401 240.1 256.301C239.5 255.001 239.5 253.401 239.9 252.001C240.7 248.401 243.4 245.501 246 242.801Z" fill="#202094"/>
<path d="M353.2 331.5C354.1 328.4 353.2 325.3 351.1 324.7C349 324.1 346.6 326.2 345.7 329.3C344.8 332.4 345.7 335.5 347.8 336.1C349.9 336.7 352.3 334.6 353.2 331.5Z" fill="#AAAFC1"/>
<path d="M324.4 381.7C326.2 381.7 327.6 380.3 327.6 378.5C327.6 376.7 326.2 375.3 324.4 375.3H229.1C227.3 375.3 225.9 376.7 225.9 378.5C225.9 380.3 227.3 381.7 229.1 381.7H278.2L292.2 433.3H211.2L161.4 284C159 284.6 156.5 285.7 154 287.4L205.2 440.4H209.2L192.9 531.8H196.7L225 440.5H293.9L322.2 531.9H326L309.7 440.5H315.1V436.2C315.1 435.3 315 434.3 314.9 433.4H295.9L281.9 381.8H324.4V381.7Z" fill="#81859A"/>
<path d="M572 291.1C571.8 276.8 581.1 253.3 591 249.3C601 245.3 622.8 258 622.8 258C622.8 258 610.9 262.7 599 262.6C587.1 262.5 572.7 294.5 572.7 294.5L572 291.1Z" fill="#00AC96"/>
<path d="M564.1 292.3C562.1 285.2 558.7 272.2 543.3 267.1C527.9 262 527.6 259 527.6 259C527.6 259 550.6 252.6 554.3 257.7C558.1 262.8 569.2 275.6 565.9 298.6C562.7 321.6 564.1 292.3 564.1 292.3Z" fill="#00AC96"/>
<path d="M583.1 314.9C583.1 314.9 582.8 302.9 586.8 297.5C590.8 292.1 608.1 286.4 613.3 297.5C618.5 308.6 611 319.5 611 319.5C611 319.5 602.6 311.6 603.5 307.2C604.4 302.8 604.2 292 599.1 293.6C594 295.2 586.7 296.9 586.2 304.9C585.8 312.9 583.1 314.9 583.1 314.9Z" fill="#00C7B1"/>
<path d="M561.8 317.199C561.8 317.199 562.3 302.399 556.6 295.699C550.9 288.999 526.5 281.999 519.2 295.699C511.9 309.399 522.4 322.799 522.4 322.799C522.4 322.799 534.2 313.099 532.9 307.599C531.6 302.199 531.9 288.899 539.2 290.799C546.5 292.699 556.7 294.899 557.3 304.799C558.1 314.699 561.8 317.199 561.8 317.199Z" fill="#009880"/>
<path d="M575.7 321.8C575.7 321.8 575.4 302.7 579.4 294.2C583.5 285.6 601 276.6 606.2 294.2C611.5 311.8 603.9 329.1 603.9 329.1C603.9 329.1 595.4 316.6 596.3 309.6C597.3 302.6 597 285.5 591.8 288C586.6 290.4 579.2 293.3 578.8 306C578.4 318.5 575.7 321.8 575.7 321.8Z" fill="#009880"/>
<path d="M563.7 306.5C563.7 306.5 565.3 272.2 557.3 270.8C549.3 269.4 529.5 277.3 526.2 298.2C524.4 309.7 535.3 316.7 535.3 316.7C535.3 316.7 550.7 308.3 549.8 301.1C548.8 292.9 549.6 278.5 552.8 277.7C556 276.9 556 276.9 556 276.9C556 276.9 562.8 286.4 560.5 307.5C558.2 328.6 563.7 306.5 563.7 306.5Z" fill="#00AC96"/>
<path d="M578.8 304.7C580 293 586.5 271.9 595.9 273.5C605.3 275 635.7 281.6 638.4 294C641.1 306.4 633.6 312.3 633.6 312.3C633.6 312.3 612.2 303.1 613.6 294.4C615 285.8 596.2 273.5 593.1 277.2C590 281 590 281 590 281C590 281 583.5 290.9 582.3 305.6C581.1 320.4 578.8 304.7 578.8 304.7Z" fill="#00AC96"/>
<path d="M564.3 341.5H583.3C584.6 341.5 585.8 341 586.8 340.1C592 335.6 595.3 328.4 595.3 320.4C595.3 314.8 593.7 309.6 590.9 305.4C590.6 304.9 590.1 304.6 589.5 304.6H558C557.5 304.6 557 304.9 556.6 305.4C553.8 309.7 552.1 315 552.2 320.9C552.3 328.7 555.7 335.7 560.7 340.2C561.8 341.1 563 341.5 564.3 341.5Z" fill="#F1F5FF"/>
<path d="M581.7 337.5C586 333.7 588.8 327.7 588.8 320.9C588.8 316.2 587.4 311.8 585.1 308.3" stroke="#B7CDFF" stroke-width="4" stroke-miterlimit="10" stroke-linecap="round"/>
<path d="M570.4 268.4C564.2 267.8 556.8 277.8 560.2 296.9C563.6 316 569.1 318.3 569.1 318.3C569.1 318.3 579.3 304.8 579.1 296.5C578.8 288.2 582.5 269.5 570.4 268.4Z" fill="#00C7B1"/>
<path d="M560.8 304.7H562.5C562.3 304.2 562.1 303.7 561.9 303.3C559.3 297.9 546.9 286.9 542.5 310C540.3 321.4 546.1 325.3 546.1 325.3C546.1 325.3 555.1 317.7 554.5 313.3C553.9 308.9 550.5 297.8 553.9 299.4C556.2 300.4 559.1 301.6 560.8 304.7Z" fill="#00C7B1"/>
<path d="M573.5 476.001C576.5 473.101 582.6 469.101 590.4 472.901C599.1 477.101 598.5 488.301 594.5 493.401C589.2 500.101 581.7 497.401 577.6 502.501C573.5 507.601 568.6 524.901 568.6 524.901" stroke="#FFB500" stroke-width="8.3351" stroke-miterlimit="10" stroke-linecap="round"/>
<path d="M576 529C578.1 523.7 579.2 517.5 579.1 511C578.9 491 567.2 474.7 553.2 475C539.1 475.2 527.8 491.5 527.8 511.5C527.8 517.9 528.9 523.8 531 529.1C531.7 530.9 533 532 534.5 532H572.5C573.9 531.9 575.3 530.8 576 529Z" fill="#FFB500"/>
<path d="M576 529C578.1 523.7 579.2 517.5 579.1 511C578.9 491 567.2 474.7 553.2 475C539.1 475.2 527.8 491.5 527.8 511.5C527.8 517.9 528.9 523.8 531 529.1C531.7 530.9 533 532 534.5 532H572.5C573.9 531.9 575.3 530.8 576 529Z" fill="url(#paint2_linear_9_13384)"/>
<path d="M548.7 457.001L544.6 452.401C543.5 450.401 540.5 451.201 540.5 453.401L538.3 466.701L548.7 457.001Z" fill="#D68E00"/>
<path d="M566.1 453.501C565.9 451.201 563.1 450.501 562 452.501L555.9 459.901L565.8 475.901C565.7 475.801 567.3 470.401 566.1 453.501Z" fill="#D68E00"/>
<path d="M549.4 532.001C540.1 532.001 532.4 524.401 532.4 515.001V472.801C532.4 463.501 540 455.801 549.4 455.801C558.7 455.801 566.4 463.401 566.4 472.801V515.001C566.3 524.301 558.7 532.001 549.4 532.001Z" fill="#FFB500"/>
<path d="M552.4 493.901C552.9 492.701 553.1 491.501 552.9 490.201C552.2 485.601 550.1 475.101 544.3 473.501C536.9 471.501 536.1 483.801 537.3 492.001C538.5 500.201 540.6 495.901 541.5 509.801C542.4 523.701 542.8 528.801 542.2 530.301C541.8 531.201 540.9 531.801 540.9 531.801H551.2C551.2 531.801 549.2 530.301 549.1 526.601C549.1 523.301 548.8 502.701 552.4 493.901Z" fill="url(#paint3_linear_9_13384)"/>
<path d="M556.5 531.9C556.5 531.9 559.1 530.6 557.9 527.9C557.5 526.9 556.5 526.5 556.5 526.5L558.4 517.7C558.5 517.3 559 517.3 559.1 517.7C559.7 519.5 560.9 522.8 562.4 525.2C562.5 525.4 562.4 525.7 562.1 525.7C561.3 525.7 559.8 526 559.5 527.3C559.2 528.6 559.6 531.4 561 531.8L556.5 531.9Z" fill="url(#paint4_linear_9_13384)"/>
<path d="M548.1 462.501C546.5 461.501 544.4 462.401 545.7 463.201C546.9 463.901 550.1 463.701 548.1 462.501Z" fill="#D68E00"/>
<path d="M541 531.9C542 531.3 542.6 530.3 542.6 529.3C542.6 527.4 540.6 525.9 538.2 525.9C535.8 525.9 533.8 527.4 533.8 529.3C533.8 530.2 534.5 531.4 535.3 532L541 531.9Z" fill="#FFB500"/>
<path d="M572.5 487.101L575.4 492.401C575.7 493.101 575.6 493.901 575.1 494.401C573.2 496.301 568.6 500.501 568.7 502.701C568.8 505.501 566.3 489.801 572.5 487.101Z" fill="#D68E00"/>
<path d="M577.2 497.7C577.2 497.7 578.4 502.4 578.5 503.9C578.7 505.4 574 507 573.3 510.8C573.4 510.8 573 500.6 577.2 497.7Z" fill="#D68E00"/>
<path d="M579.1 513.101C579.1 513.101 579 516.601 578.6 519.001C578.3 520.601 576.5 518.901 576 520.601C576 520.501 576.6 514.301 579.1 513.101Z" fill="#D68E00"/>
<path d="M537.9 85.1001C537.9 77.8001 531.7 71.9001 524.3 72.5001C518.2 72.9001 513.2 77.7001 512.6 83.8001C512.2 87.6001 513.5 91.0001 515.7 93.6001C517.8 96.0001 519.1 99.0001 519.1 102.2V102.7H531.3V102.1C531.3 99.0001 532.5 96.0001 534.6 93.6001C536.6 91.4001 537.9 88.4001 537.9 85.1001Z" fill="#FFCC00"/>
<path opacity="0.5" d="M535 83.4004C534.8 82.3004 534.4 81.3004 533.8 80.4004" stroke="#F1F5FF" stroke-width="1.4746" stroke-miterlimit="10" stroke-linecap="round"/>
<path opacity="0.5" d="M535 87.3C535.1 87 535.1 86.7 535.1 86.5" stroke="#F1F5FF" stroke-width="1.4746" stroke-miterlimit="10" stroke-linecap="round"/>
<path d="M527.5 113.1C527.4 113.9 526.7 114.4 525.9 114.4H524.6C523.8 114.4 523.2 113.9 523 113.1C522.9 112.4 523.4 111.7 524.2 111.7H526.3C527.1 111.7 527.7 112.4 527.5 113.1Z" fill="#333A4E"/>
<path d="M529.2 112.2C530.9 111.3 533.1 108.9 531.9 102.9C531.8 102.4 531.4 102.1 530.9 102.1H519.7C519.2 102.1 518.8 102.5 518.7 102.9C517.5 109 519.8 111.3 521.5 112.2C521.9 112.4 522.3 112.5 522.7 112.5H528.1C528.4 112.5 528.8 112.4 529.2 112.2Z" fill="#6249FF"/>
<path d="M530.3 111.2C525.4 111.2 521.7 106.9 522.4 102H519.7C519.2 102 518.8 102.4 518.7 102.8C517.5 108.9 519.8 111.2 521.5 112.1C521.9 112.3 522.3 112.4 522.7 112.4H528.1C528.5 112.4 528.9 112.3 529.3 112.1C529.7 111.9 530.1 111.6 530.6 111.1L530.3 111.2Z" fill="#4F3FF7"/>
<path opacity="0.3" d="M548.9 88.1004L542.3 86.9004" stroke="#FFCC00" stroke-width="1.3108" stroke-miterlimit="10" stroke-linecap="round"/>
<path opacity="0.3" d="M543.5 68.2002L538.3 72.5002" stroke="#FFCC00" stroke-width="1.3108" stroke-miterlimit="10" stroke-linecap="round"/>
<path opacity="0.3" d="M524.7 59.7002V66.4002" stroke="#FFCC00" stroke-width="1.3108" stroke-miterlimit="10" stroke-linecap="round"/>
<path opacity="0.3" d="M506.1 68.6006L511.3 72.9006" stroke="#FFCC00" stroke-width="1.3108" stroke-miterlimit="10" stroke-linecap="round"/>
<path opacity="0.3" d="M501.2 88.6004L507.8 87.4004" stroke="#FFCC00" stroke-width="1.3108" stroke-miterlimit="10" stroke-linecap="round"/>
<defs>
<linearGradient id="paint0_linear_9_13384" x1="154" y1="532.715" x2="645.48" y2="532.715" gradientUnits="userSpaceOnUse">
<stop stop-color="white" stop-opacity="0"/>
<stop offset="1" stop-color="#5A52FF" stop-opacity="0.4"/>
</linearGradient>
<linearGradient id="paint1_linear_9_13384" x1="533.229" y1="157.947" x2="542.543" y2="157.947" gradientUnits="userSpaceOnUse">
<stop stop-color="white" stop-opacity="0"/>
<stop offset="1" stop-color="#5A52FF" stop-opacity="0.4"/>
</linearGradient>
<linearGradient id="paint2_linear_9_13384" x1="536.03" y1="486.427" x2="558.121" y2="516.986" gradientUnits="userSpaceOnUse">
<stop offset="0.2001" stop-color="#D68E00"/>
<stop offset="0.7471" stop-color="#D68E00" stop-opacity="0"/>
<stop offset="1" stop-color="#FFB500" stop-opacity="0"/>
</linearGradient>
<linearGradient id="paint3_linear_9_13384" x1="546.374" y1="529.129" x2="545.285" y2="497.547" gradientUnits="userSpaceOnUse">
<stop stop-color="#AE6E00"/>
<stop offset="1" stop-color="#FFE8BF"/>
</linearGradient>
<linearGradient id="paint4_linear_9_13384" x1="553.452" y1="520.09" x2="559.832" y2="527.034" gradientUnits="userSpaceOnUse">
<stop offset="0.3176" stop-color="#AE6E00"/>
<stop offset="1" stop-color="#FFE8BF"/>
</linearGradient>
</defs>
</svg>
