<?xml version="1.0" encoding="utf-8"?>
<!-- Generator: Adobe Illustrator 25.1.0, SVG Export Plug-In . SVG Version: 6.00 Build 0)  -->
<svg version="1.1" id="Layer_1" xmlns="http://www.w3.org/2000/svg" xmlns:xlink="http://www.w3.org/1999/xlink" x="0px" y="0px"
	 viewBox="0 0 438.1 426.5" style="enable-background:new 0 0 438.1 426.5;" xml:space="preserve">
<style type="text/css">
	.st0{fill:#515B60;}
	.st1{fill:none;stroke:#263238;stroke-linecap:round;stroke-linejoin:round;}
	.st2{fill:#99DC38;stroke:#263238;stroke-linecap:round;stroke-linejoin:round;}
	.st3{fill:#99DC38;}
	.st4{opacity:0.2;fill:#FFFFFF;enable-background:new    ;}
	.st5{fill:#FFFFFF;}
	.st6{clip-path:url(#SVGID_2_);}
	.st7{fill:#263238;stroke:#263238;stroke-linecap:round;stroke-linejoin:round;}
	.st8{fill:#FFFFFF;stroke:#263238;stroke-linecap:round;stroke-linejoin:round;}
	.st9{fill:#263238;}
	.st10{opacity:0.3;fill:#FFFFFF;enable-background:new    ;}
	.st11{clip-path:url(#SVGID_4_);}
	.st12{clip-path:url(#SVGID_6_);}
	.st13{fill:none;stroke:#263238;stroke-miterlimit:10;}
	.st14{clip-path:url(#SVGID_8_);}
	.st15{fill:#BFBFBF;stroke:#263238;stroke-linecap:round;stroke-linejoin:round;}
	.st16{fill:none;stroke:#7F7F7F;stroke-linecap:round;stroke-linejoin:round;}
	.st17{clip-path:url(#SVGID_10_);}
	.st18{clip-path:url(#SVGID_12_);}
	.st19{opacity:0.2;enable-background:new    ;}
	.st20{clip-path:url(#SVGID_14_);}
	.st21{clip-path:url(#SVGID_16_);}
	.st22{clip-path:url(#SVGID_18_);}
	.st23{clip-path:url(#SVGID_20_);}
	.st24{fill:#BFBFBF;}
	.st25{clip-path:url(#SVGID_22_);}
	.st26{clip-path:url(#SVGID_24_);}
	.st27{clip-path:url(#SVGID_26_);}
</style>
<g id="freepik--Globe--inject-65">
	
		<ellipse transform="matrix(0.7071 -0.7071 0.7071 0.7071 -69.5353 226.2183)" class="st0" cx="238.3" cy="197" rx="108.2" ry="108.2"/>
	
		<ellipse transform="matrix(0.7071 -0.7071 0.7071 0.7071 -69.5353 226.2183)" class="st1" cx="238.3" cy="197" rx="108.2" ry="108.2"/>
	<path class="st2" d="M183.2,133.3c-1.2-0.9-7.2,1.1-7.3-0.7c0-1.2,4-4.5,4.8-6c1.1-2.2,0.5-5.2,1.6-7.3c0.9-1.8,2-3.4,3.4-4.8
		c6.1-5.1,15.4-10.7,23.1-11.1c2.8-0.1,6.6,4.6,7.2,8.4c0.4,2.2,0,8.8-2,11.1c-2.9,3.5-9.4,3.5-12.8,6.2c-4,3.1-5.9,10.6-10.5,13
		c-1.3,0.7-3.7-0.7-4.5-1.4C184.6,139.4,184.6,134.3,183.2,133.3z"/>
	<path class="st2" d="M308.6,244.6c-0.7-0.2-1.5-0.1-2.2,0.1c-1.8,1-4.4,4.9-5.3,6.9c-1.1,2.2-2.3,6.9-2.2,9
		c0.1,1.1,0.7,3.4,1.7,3.5c0.7,0.1,2.6-1.3,3.3-2.1c3.5-4.1,7.6-10.6,7.3-15.7C311.1,245.5,309.4,244.8,308.6,244.6z"/>
	<path class="st2" d="M243,145.6c1.3-0.1,4.2-0.8,5-2c1.3-1.9,1.8-7.6,0.4-9.2c-0.6-0.7-2.7-0.5-3.4,0.1c-0.9,0.8-0.7,4-1.6,4.9
		s-3.6-0.3-4.4,0.6s-1,3.9-0.4,4.8S241.9,145.7,243,145.6z"/>
	<path class="st2" d="M307.6,113.9c-1,0.8-1.7,2-2,3.3c0,0.9,1.7,3.4,1.5,4.2c-0.6,1.9-5,3.3-7.3,2.1c-0.7-0.4-1.3-2.5-2-2.9
		c-2.8-1.9-8.1-0.6-10.8-0.8c-1.3,0-2.6,0-3.9-0.2c-4.6-1.4-9.3-6.1-14-6.3c-2.3-0.1-7.5,3.2-9.2,5.7c-2.3,3.5-3.5,7.5-3.6,11.6
		c0,1.7,1.6,5.4,2.9,6.3s5.2,1.1,6.4,0c0.9-0.8,0.4-3.9,1.1-4.8s3.6-2.6,4.5-1.9c2.6,2.4,3.2,9.2,1.6,12.1
		c-1.7,3.1-8.6,6.4-12.2,4.7c-1.3-0.6-0.2-5.6-1.4-6.8s-4.5-2-5.6-1c-1.3,1.3,0.9,6.2-0.1,7.7c-1.2,1.7-6,1.2-7.7,2.5
		c-1.2,1-3.3,3.8-3.4,5.4c-0.1,1.4,2.8,3.6,2.1,4.8c-1,1.7-6.2-1.4-7.4,0.1c-1.7,2-0.5,8.5,1.4,10.1c1.4,1.2,6.1,1.1,7.6,0
		c1.1-0.8,0.4-4.5,1.5-5.3c1.5-1.1,5.3,0.9,7,0.5c1.3-0.3,3.4-3.1,4.7-2.9c1.8,0.3,4.4,3.9,4.7,5.8c0.3,1.4-2.9,4.4-1.9,5.3
		c1.3,1.2,5.5-1.3,6.2-2.9c0.8-2-3.7-6.2-3-8.2c0.6-0.9,1.7-1.5,2.8-1.4c2.6,0.6,4.2,8,6.8,8.7c1.9,0.5,5.1-3.3,7-2.8
		c2.2,0.5,5.8,4.6,6.5,6.8c0.5,1.6-0.1,5.3-1.2,6.2c-3.7,3.3-10.7,4.1-15.8,3.8c-2.4-0.2-7.4-2.1-9.2-3.9c-1.2-1.2-1.5-5.5-2.9-6.3
		c-3.6-2.1-9.4-1.8-13.4-0.4c-7,2.3-15.6,9-19.5,15.5c-1.4,2.4,0,8.7-1.4,11c-0.4,0.7-2.5,1.1-2.9,1.9c-1.2,2.3-0.9,8.3,0.4,10.5
		c2.8,4.5,7,7.9,12,9.8c4.9,1.7,11.7-1,16.9,0.1c1.6,0.4,5.2,2.3,6.1,3.9c1.2,2.1-0.6,7.6,0.5,9.7c0.9,1.7,6,1.7,6.7,3.4
		c2.6,6.1-3.5,14.3-2.6,20.8c0.3,2.2,3.7,5.6,4,7.7c0.6,3.9-1.5,9.1,0,12.6c1,2.3,6.8,3.2,9,2c4.7-2.5,9.8-8.4,12-13.1
		c2-4.3,0.3-11,2.5-14.8c1.8-3,7.4-4.5,9.3-7.5c2.8-4.5,0.6-12.9,3.3-17.6c2.1-3.7,8-5.8,10-9.7c0.8-1.5,0.4-6.1-0.7-7
		c-2.7-2.2-9.1-0.7-11.7-3.1c-1.1-1.1,0.5-5.9-0.2-7.6s-4.2-3.6-4.7-5.2s-0.9-6.3,0.5-7.6c0.6-0.6,2.7-0.4,3.4,0
		c3.8,2.1,6.9,6.8,8.2,10.9c0.4,1.4-1.5,4.9-0.7,6.2c0.6,0.9,3.1,1.5,4.2,1.4c4.8-0.8,13.1-4.4,13.9-8.1c1-4.6-11.6-9.8-10.2-15
		c0.4-1.6,6.8-1.6,8.7-0.4c1.3,0.8,1.2,4.5,2.1,5.6c2.6,3,6.6,5.1,10.2,6.9c1.7,0.9,6.2,1.1,7.2,2.7c1.2,2-2.4,7.4-1.7,9.5
		c1,2.8,2.5,5.4,4.4,7.7C351.4,177.4,337.2,138.7,307.6,113.9z"/>
	<path class="st2" d="M181.7,267c-4-3.8-8.7-9.9-9.2-14.8c-0.5-5.6,10.4-8.1,11-14.4c0.2-2.3-5.2-8.2-4.8-10.5s6.5-4.8,6.2-7.3
		c-0.5-5.2-6.1-11.1-10.4-13.9c-2.4-1.5-9.1,0.4-11.2-1.6c-1-0.9,0.6-4-0.4-4.9c-1.3-1.1-5.2,0.5-6.8-0.1c-1.8-0.7-3.8-4.7-5.5-5.3
		c-5.9-2-14.6,2.9-20.5,0.6c0,0.8,0,1.5,0,2.3v0.5c1,0.5,1.9,1.3,2.4,2.3c0.3,1.7-0.1,3.5-1.3,4.9c-0.3,0.2-0.6,0.3-0.9,0.3
		c0.2,3.1,0.6,6.1,1.1,9.1c3,1.9,6.9,3.1,8.9,5.8c1.2,1.6-1.4,5.2,0,6.8c2.7,3,8.8,3.3,11.7,6c7,6.3,8.1,19.1,15.9,26.3
		c1.4,1.3,4.6,2.5,6,3.8c1.9,1.8,2.7,5.3,4.7,7c3.5,3,9.4,8,12.6,7.7c0.6,0-1.6-5-3.5-7C186.4,269.1,183.1,268.3,181.7,267z"/>
	<path class="st2" d="M134.1,177.6c0.9,0.3,2,0.3,2.9-0.1c1.4-1.1,0.2-4.6,1.3-5.8c4.8-5.2,14.6-4.8,19.1-10.4
		c1.3-1.6-0.7-5.6,1-6.8c5.4-3.7,14,4.1,18.7,0.6c2.8-2,5.3-9,4-12.1c-0.2-0.6-3.3,0.8-3.9,0.4c-1.2-0.9,0.8-6.4-0.3-6.7
		c-3.2-1.1-8.6,1.8-12,3.6c-0.9,0.5-2.6,2.6-3.5,2.9c-1.9,0.6-5.7-0.7-4.7-2.1c2.3-3.1,8.1-3.9,11.3-6.4c2.8-2.2,7.8-6.7,7.8-9.1
		c-0.1-3.2-13.6,0.4-17,2.1c-2,1-6.3,5.1-8.3,6.1c-8.9,12.2-15.1,26.2-18.2,41C132.9,175.9,133.3,177.2,134.1,177.6z"/>
</g>
<g id="freepik--Lines--inject-65">
	<line class="st1" x1="170.2" y1="315.5" x2="183.6" y2="295.6"/>
	<line class="st1" x1="105.6" y1="192.4" x2="126.6" y2="192.7"/>
	<line class="st1" x1="167.9" y1="79.3" x2="180.9" y2="100"/>
	<line class="st1" x1="376.8" y1="195.2" x2="350.6" y2="195.5"/>
	<polyline class="st1" points="99.2,269.3 121.2,299.3 133.1,315.5 	"/>
	<line class="st1" x1="136.9" y1="80.8" x2="85.6" y2="145.8"/>
	<line class="st1" x1="310.9" y1="329.5" x2="185.4" y2="335"/>
	<line class="st1" x1="363.1" y1="301.8" x2="403" y2="226.6"/>
	<line class="st1" x1="406.1" y1="165.8" x2="404.8" y2="141.4"/>
	<line class="st1" x1="317.7" y1="116.9" x2="330.4" y2="107.6"/>
	<line class="st1" x1="185.2" y1="52.9" x2="329.8" y2="55.4"/>
</g>
<g id="freepik--face-3--inject-65">
	<circle class="st3" cx="407.2" cy="195.9" r="27.4"/>
	<circle class="st4" cx="407.2" cy="195.9" r="27.4"/>
	<path class="st5" d="M407.4,223.5c2.5,0,4.9-0.3,7.3-1l-1.5-8.9l-12.9,0.8l-0.5,8.1C402.2,223.1,404.8,223.5,407.4,223.5z"/>
	<g>
		<defs>
			<path id="SVGID_1_" d="M407.4,223.5c2.5,0,4.9-0.3,7.3-1l-1.5-8.9l-12.9,0.8l-0.5,8.1C402.2,223.1,404.8,223.5,407.4,223.5z"/>
		</defs>
		<clipPath id="SVGID_2_">
			<use xlink:href="#SVGID_1_"  style="overflow:visible;"/>
		</clipPath>
		<g class="st6">
			<path class="st7" d="M397.7,213.7c2.3,3.9,5.8,6.4,9.6,6.4s7.3-2.5,9.6-6.4H397.7z"/>
		</g>
	</g>
	<path class="st1" d="M407.4,223.5c2.5,0,4.9-0.3,7.3-1l-1.5-8.9l-12.9,0.8l-0.5,8.1C402.2,223.1,404.8,223.5,407.4,223.5z"/>
	<path class="st8" d="M422.6,199.2c-0.5-0.3-1.2-0.3-1.7-0.1c-0.4-9.8-6.5-17.7-14-17.7s-13.6,7.8-14,17.7c-0.6-0.2-1.2-0.1-1.7,0.1
		c-1.5,0.7-1.9,2.9-0.9,4.9c0.6,1.4,2,2.4,3.5,2.5c2,7,7.1,11.9,13,11.9s11-5,13.1-11.9c1.6-0.1,2.9-1,3.5-2.5
		C424.5,202.1,424.1,199.9,422.6,199.2z"/>
	<path class="st1" d="M405,201.1l-0.1,0.5c-0.4,1.7-1,3.3-1.9,4.7l0,0l2.8,1.5"/>
	<path class="st1" d="M402.6,211.6c2.4,1,5.1,1,7.5,0"/>
	<path class="st9" d="M399.7,199.7c0,0.7-0.3,1.3-0.6,1.3s-0.6-0.6-0.6-1.3s0.3-1.3,0.6-1.3S399.7,199,399.7,199.7z"/>
	<path class="st9" d="M410.4,199.7c0,0.7-0.3,1.3-0.6,1.3s-0.6-0.6-0.6-1.3s0.3-1.3,0.6-1.3S410.4,199,410.4,199.7z"/>
	<path class="st1" d="M397.9,197.1c1-1.9,3.2-2.8,5.2-2.3"/>
	<path class="st1" d="M414.4,197.1c-1-1.9-3.2-2.8-5.2-2.3"/>
	<line class="st1" x1="395.9" y1="197.5" x2="393.1" y2="197.5"/>
	<rect x="396.5" y="197.5" class="st1" width="7.9" height="5.1"/>
	<rect x="407.8" y="197.5" class="st1" width="7.9" height="5.1"/>
	<line class="st1" x1="404.4" y1="199" x2="407.8" y2="199"/>
	<line class="st1" x1="420.4" y1="197.5" x2="415.7" y2="197.5"/>
	<path class="st7" d="M394,199c1,0.1,3.9-6.5,2.8-10.9s9.8-1.1,16.6-1.8s2.4,9.6,6.2,12.1s3-15.2-0.7-15.7c0,0-2.8-5.2-13.4-4.8
		s-12.1,7.2-12.1,7.2S388.2,198.5,394,199z"/>
</g>
<g id="freepik--face-2--inject-65">
	<circle class="st3" cx="151.6" cy="50.7" r="30.4"/>
	<circle class="st10" cx="151.6" cy="50.7" r="30.4"/>
	<path class="st5" d="M151.2,81.3c2.8,0,5.5-0.4,8.1-1.1l-1.7-9.9l-14.3,0.8l-0.6,9C145.5,81,148.4,81.4,151.2,81.3z"/>
	<g>
		<defs>
			<path id="SVGID_3_" d="M151.2,81.3c2.8,0,5.5-0.4,8.1-1.1l-1.7-9.9l-14.3,0.8l-0.6,9C145.5,81,148.4,81.4,151.2,81.3z"/>
		</defs>
		<clipPath id="SVGID_4_">
			<use xlink:href="#SVGID_3_"  style="overflow:visible;"/>
		</clipPath>
		<g class="st11">
			<path class="st7" d="M140.5,71.6c2.6,4.3,6.4,7.1,10.7,7.1s8.1-2.8,10.7-7.1L140.5,71.6z"/>
		</g>
	</g>
	<path class="st1" d="M151.2,81.3c2.8,0,5.5-0.4,8.1-1.1l-1.7-9.9l-14.3,0.8l-0.6,9C145.5,81,148.4,81.4,151.2,81.3z"/>
	<path class="st7" d="M165.4,37.9c0,0,13.8,28.3,5.2,34.1c-9.1,6.2-30.9,6.5-37.8-1c-6.9-7.5,0.1-25.1,3-28.8
		c2.1-2.5,4.7-4.6,7.5-6.3l9.5-2l9.7,3.5L165.4,37.9z"/>
	<path class="st8" d="M168.7,54.3c-0.6-0.3-1.3-0.3-1.9-0.2c-0.4-10.9-7.2-19.7-15.5-19.7s-15.1,8.7-15.5,19.7
		c-0.6-0.2-1.3-0.1-1.9,0.2c-1.6,0.8-2.1,3.2-1,5.4c0.7,1.6,2.2,2.7,3.9,2.8c2.2,7.8,7.9,13.3,14.5,13.3s12.3-5.5,14.5-13.3
		c1.7-0.1,3.3-1.2,3.9-2.8C170.7,57.6,170.3,55.1,168.7,54.3z"/>
	<polyline class="st1" points="149.1,56.5 146.9,62.3 150,64 	"/>
	<path class="st1" d="M146.9,68.1c2.7,1.2,5.7,1.2,8.4,0"/>
	<path class="st1" d="M140.2,51.2c1.6-1.7,4.3-2.1,6.3-0.8"/>
	<path class="st1" d="M159.1,51.3c-1.6-1.8-4.2-2.2-6.3-1"/>
	<path class="st7" d="M143.4,58.1L143.4,58.1c-2.4,0-4.4-2-4.4-4.4v-1.3h7.5c0.7,0,1.3,0.6,1.3,1.3l0,0
		C147.7,56.2,145.8,58.1,143.4,58.1z"/>
	<path class="st7" d="M155.9,58.1L155.9,58.1c-2.4,0-4.4-2-4.4-4.4l0,0c0-0.7,0.6-1.3,1.3-1.3h7.5v1.3
		C160.3,56.2,158.3,58.1,155.9,58.1z"/>
	<line class="st1" x1="147.7" y1="54.2" x2="151.6" y2="54.2"/>
	<line class="st1" x1="139" y1="52.5" x2="135.8" y2="52.5"/>
	<line class="st1" x1="166.6" y1="52.5" x2="160.8" y2="52.5"/>
	<path class="st7" d="M146.5,39.9c0,0,7.1,9.2,13.8,9.8s2.3,14,0,14.4c0,0,6,0.2,6.4-9.8c0,0,8.3-13.6-5.8-19.4
		c-10.9-4.5-16.3-0.3-16.3-0.3S130.9,38,134.5,52c0,0,2.4,7.4,5.1,8.2c0,0-3.9-8.3-0.1-12.8S146.2,43.2,146.5,39.9z"/>
	<path class="st1" d="M200,29.9h5c4.2,0,7.6-3.4,7.6-7.6s-3.4-7.6-7.6-7.6h-0.4c-1.5-4.7-6.6-7.3-11.3-5.8c-2.7,0.9-4.9,3-5.8,5.8
		h-0.4c-4.2,0-7.6,3.4-7.6,7.6s3.4,7.6,7.6,7.6l0,0h2.1"/>
	<polygon class="st2" points="203.9,27.6 194.6,18.3 185.3,27.6 190.9,27.6 190.9,35.1 198.4,35.1 198.4,27.6 	"/>
</g>
<g id="freepik--face-1--inject-65">
	<circle class="st3" cx="152.8" cy="343.2" r="30.4"/>
	<circle class="st4" cx="152.8" cy="343.2" r="30.4"/>
	<path class="st5" d="M152.8,373.5c2.8,0,5.5-0.4,8.1-1.1l-1.7-9.9l-14.3,0.9l-0.6,9C147.2,373.1,150,373.5,152.8,373.5z"/>
	<g>
		<defs>
			<path id="SVGID_5_" d="M152.8,373.5c2.8,0,5.5-0.4,8.1-1.1l-1.7-9.9l-14.3,0.9l-0.6,9C147.2,373.1,150,373.5,152.8,373.5z"/>
		</defs>
		<clipPath id="SVGID_6_">
			<use xlink:href="#SVGID_5_"  style="overflow:visible;"/>
		</clipPath>
		<g class="st12">
			<path class="st7" d="M142.2,363.8c2.6,4.3,6.4,7.1,10.7,7.1s8.1-2.8,10.7-7.1H142.2z"/>
		</g>
	</g>
	<path class="st1" d="M152.8,373.5c2.8,0,5.5-0.4,8.1-1.1l-1.7-9.9l-14.3,0.9l-0.6,9C147.2,373.1,150,373.5,152.8,373.5z"/>
	<path class="st8" d="M170.2,347.1c-0.6-0.3-1.3-0.3-1.9-0.1c-0.4-10.9-7.2-19.6-15.5-19.6s-15.1,8.7-15.5,19.6
		c-0.6-0.2-1.3-0.1-1.9,0.1c-1.6,0.8-2.1,3.2-1,5.4c0.7,1.6,2.2,2.7,3.9,2.8c2.2,7.8,7.9,13.3,14.5,13.3s12.3-5.5,14.5-13.3
		c1.7-0.1,3.3-1.2,3.9-2.8C172.3,350.3,171.9,347.9,170.2,347.1z"/>
	<polyline class="st1" points="152.5,349.3 154.8,355.1 151.7,356.8 	"/>
	<path class="st1" d="M148.4,360.9c2.7,1.2,5.7,1.2,8.4,0"/>
	<path class="st9" d="M147.7,348c0,0.8-0.3,1.5-0.7,1.5s-0.7-0.7-0.7-1.5s0.3-1.5,0.7-1.5S147.7,347.2,147.7,348z"/>
	<path class="st9" d="M159.4,348c0,0.8-0.3,1.5-0.7,1.5s-0.7-0.7-0.7-1.5s0.3-1.5,0.7-1.5S159.4,347.2,159.4,348z"/>
	<path class="st1" d="M143.2,344.9c1.1-2.1,3.5-3.2,5.8-2.5"/>
	<path class="st1" d="M161.6,344.9c-1.1-2.1-3.5-3.2-5.8-2.5"/>
	<path class="st7" d="M135.8,344.9c0,0,2.4,4.9,3.7,4.5s-0.6-9.4,2.6-11.7s13.9,0.7,18.4-3.1c0,0-0.1,5.3,2.9,7.8s1.8,7.4,3.3,7.1
		s1.8-3.9,2.1-5.4c0.9-4.6,2.1-17.4-5.5-17.4c0,0-1.9-2.7-13-2.4s-11.4-2.8-11.4-2.8S130.3,333.1,135.8,344.9z"/>
</g>
<g id="freepik--character-3--inject-65">
	<path class="st13" d="M429.7,100.8v3.9h-55.9v-3.9c0-4,3.2-7.2,7.2-7.2h41.4C426.4,93.5,429.7,96.8,429.7,100.8
		C429.7,100.8,429.7,100.8,429.7,100.8z"/>
	<polyline class="st13" points="431,124.2 431,104.6 372.4,104.6 372.4,131.1 	"/>
	<path class="st8" d="M362.6,58.4c0,0,2.3-6.1,8.1-5.2s1.4,5.8-1.4,6.2C369.2,59.5,368.8,57.8,362.6,58.4z"/>
	<path class="st8" d="M358.7,61.9c-0.8,0.8-2.6,0.8-1.4-0.8c1-1.3,2.4-2.3,3.9-2.9c2.7-1.2,3.8-1,6.3-1.5s2.9,0.5,3.8,0.9
		c2,1.1,2.5,1.3,3,2.4s1.1,2.6-0.5,2.6s-1.5-2.4-3-2.3s-2.1,2.3-3.1,2.3h-0.4c-0.9,0-0.9-0.7-0.4-1.8s1.1-2.1,1.1-2.1
		c-0.8,0.4-1.5,1.1-1.9,2c-0.7,1.4-0.8,2-2,2s-1.2-0.9,0.1-3c-0.7,0.4-1.3,1-1.7,1.8c-0.6,1.2-0.9,1.1-1.7,1.1c-1,0-1-1.7,0.9-2.8
		C361.8,59.7,361.4,59.2,358.7,61.9z"/>
	<path class="st8" d="M366,57.8c0,0-0.7,0-1.2,1.2"/>
	<polygon class="st8" points="380.6,137.6 384.6,144.6 388,144.6 389.5,142.5 385.8,133.5 	"/>
	<path class="st7" d="M390.1,77.1l-4.1,1.6c0,0-29.4,8.5-30.7,15.7s25.9,44.9,25.9,44.9s3.3,0.5,5.8-3.9c0,0-9.6-28.9-14-34.6
		c0,0,32.3-5.7,33.8-9.8s-2.8-14.4-2.8-14.4L390.1,77.1z"/>
	<path class="st9" d="M382.4,144.5c0.1-0.3,0.4-0.4,0.7-0.4c2.5-0.2,4.8-1.5,6.2-3.6c0.3-0.4,0.7-0.5,1.1-0.3
		c1.5,0.9,2.8,2.2,3.7,3.7c0.7,1.1,0.4,2.5-0.7,3.3l-12.8,8.6c-0.7,0.5-1.5,0.7-2.3,0.7h-3.2c-0.6,0-1.1-0.5-1.1-1.1
		c0-0.1,0-0.3,0.1-0.4c0.3-0.8,0.9-1.4,1.7-1.6C378,152.9,382,145.3,382.4,144.5z"/>
	<g>
		<defs>
			<path id="SVGID_7_" d="M382.4,144.5c0.1-0.3,0.4-0.4,0.7-0.4c2.5-0.2,4.8-1.5,6.2-3.6c0.3-0.4,0.7-0.5,1.1-0.3
				c1.5,0.9,2.8,2.2,3.7,3.7c0.7,1.1,0.4,2.5-0.7,3.3l-12.8,8.6c-0.7,0.5-1.5,0.7-2.3,0.7h-3.2c-0.6,0-1.1-0.5-1.1-1.1
				c0-0.1,0-0.3,0.1-0.4c0.3-0.8,0.9-1.4,1.7-1.6C378,152.9,382,145.3,382.4,144.5z"/>
		</defs>
		<clipPath id="SVGID_8_">
			<use xlink:href="#SVGID_7_"  style="overflow:visible;"/>
		</clipPath>
		<g class="st14">
			<path class="st15" d="M382.4,144.5c0.1-0.3,0.4-0.4,0.7-0.4c2.5-0.2,4.8-1.5,6.2-3.6c0.3-0.4,0.7-0.5,1.1-0.3
				c1.5,0.9,2.8,2.2,3.7,3.7c0.7,1.1,0.4,2.5-0.7,3.3l-12.8,8.6c-0.7,0.5-1.5,0.7-2.3,0.7h-3.2c-0.6,0-1.1-0.5-1.1-1.1
				c0-0.1,0-0.3,0.1-0.4c0.3-0.8,0.9-1.4,1.7-1.6C378,152.9,382,145.3,382.4,144.5z"/>
		</g>
	</g>
	<path class="st1" d="M382.4,144.5c0.1-0.3,0.4-0.4,0.7-0.4c2.5-0.2,4.8-1.5,6.2-3.6c0.3-0.4,0.7-0.5,1.1-0.3
		c1.5,0.9,2.8,2.2,3.7,3.7c0.7,1.1,0.4,2.5-0.7,3.3l-12.8,8.6c-0.7,0.5-1.5,0.7-2.3,0.7h-3.2c-0.6,0-1.1-0.5-1.1-1.1
		c0-0.1,0-0.3,0.1-0.4c0.3-0.8,0.9-1.4,1.7-1.6C378,152.9,382,145.3,382.4,144.5z"/>
	<path class="st16" d="M366.7,97.3c0,0,1.8,0.1,4.9,2.4"/>
	<polygon class="st8" points="378.8,139.3 377.5,149.5 383.5,150.5 386.6,140.5 	"/>
	<path class="st7" d="M399.7,79.8c0.4,1.4-0.3,6-1.6,6.7c-5,2.7-13.3,9.7-15.1,17.2c-2.3,9.5-4.9,38.7-4.9,38.7s2.1,3.4,7.5,1.8
		c0,0,10.1-24.3,10.8-36.1c5.2-3.5,10.7-6.4,16.5-8.7c4.9-1.8,7.5-4.9,8.5-7.5c2.6-7-2.6-18.3-2.6-18.3l-19.1,3.8L399.7,79.8z"/>
	<path class="st16" d="M391.8,105c1.3,0.1,2.6,0.7,3.5,1.7"/>
	<path class="st9" d="M377.2,147c-0.2-0.2-0.5-0.3-0.8-0.2c-1.7,0.6-8.1,2.6-11.8,2.5c-2.7-0.1-3.5,1.4-3.8,2.6
		c-0.1,0.6,0.3,1.3,0.9,1.4c0,0,0,0,0.1,0l20.7,3.1c1.3,0.2,2.5-0.6,2.8-1.9c0.4-1.7,0.3-3.5-0.2-5.2c-0.1-0.4-0.6-0.7-1-0.6
		C381.7,149.2,379.1,148.6,377.2,147z"/>
	<g>
		<defs>
			<path id="SVGID_9_" d="M377.2,147c-0.2-0.2-0.5-0.3-0.8-0.2c-1.7,0.6-8.1,2.6-11.8,2.5c-2.7-0.1-3.5,1.4-3.8,2.6
				c-0.1,0.6,0.3,1.3,0.9,1.4c0,0,0,0,0.1,0l20.7,3.1c1.3,0.2,2.5-0.6,2.8-1.9c0.4-1.7,0.3-3.5-0.2-5.2c-0.1-0.4-0.6-0.7-1-0.6
				C381.7,149.2,379.1,148.6,377.2,147z"/>
		</defs>
		<clipPath id="SVGID_10_">
			<use xlink:href="#SVGID_9_"  style="overflow:visible;"/>
		</clipPath>
		<g class="st17">
			<path class="st15" d="M377.2,147c-0.2-0.2-0.5-0.3-0.8-0.2c-1.7,0.6-8.1,2.6-11.8,2.5c-2.7-0.1-3.5,1.4-3.8,2.6
				c-0.1,0.6,0.3,1.3,0.9,1.4c0,0,0,0,0.1,0l20.7,3.1c1.3,0.2,2.5-0.6,2.8-1.9c0.4-1.7,0.3-3.5-0.2-5.2c-0.1-0.4-0.6-0.7-1-0.6
				C381.7,149.2,379.1,148.6,377.2,147z"/>
		</g>
	</g>
	<path class="st1" d="M377.2,147c-0.2-0.2-0.5-0.3-0.8-0.2c-1.7,0.6-8.1,2.6-11.8,2.5c-2.7-0.1-3.5,1.4-3.8,2.6
		c-0.1,0.6,0.3,1.3,0.9,1.4c0,0,0,0,0.1,0l20.7,3.1c1.3,0.2,2.5-0.6,2.8-1.9c0.4-1.7,0.3-3.5-0.2-5.2c-0.1-0.4-0.6-0.7-1-0.6
		C381.7,149.2,379.1,148.6,377.2,147z"/>
	<path class="st16" d="M387,96.6c3.5-5.1,8.8-8.8,14.9-10.2"/>
	<path class="st2" d="M421.8,77.6c-15.8,4.4-35.9,1-35.9,1c0.3-2.9,0.3-5.9-0.2-8.8h18.5c1.3,0,2.6-0.5,3.6-1.5
		c0.9-0.9,1.4-2.2,1.4-3.5h-24.5c-0.7-3-1.6-6.4-2.7-10.2c-1-3.6-1.7-7.2-2-10.9l-6.3,11.4c0,0-0.8,2.8-4.8,2.8s-3.6-1.4-0.1-12.8
		c2.2-6.6,5.6-12.7,10.1-17.9c0.2-0.2,0.4-0.4,0.7-0.4c0-0.1,0-0.1,0-0.1c25.8-6.7,36.9,1.6,36.9,1.6
		C409.4,49.3,421.8,77.6,421.8,77.6z"/>
	<path class="st5" d="M385.7,59.9c0,0-3.4,2.1-2.4,2.6c1.7,0.8,5.3-1.7,5.3-1.7s3.9-0.3,1.9-1.2l-2-0.9L385.7,59.9z"/>
	<g>
		<defs>
			<path id="SVGID_11_" d="M385.7,59.9c0,0-3.4,2.1-2.4,2.6c1.7,0.8,5.3-1.7,5.3-1.7s3.9-0.3,1.9-1.2l-2-0.9L385.7,59.9z"/>
		</defs>
		<clipPath id="SVGID_12_">
			<use xlink:href="#SVGID_11_"  style="overflow:visible;"/>
		</clipPath>
		<g class="st18">
			<path class="st19" d="M385.7,59.9c0,0-3.4,2.1-2.4,2.6c1.7,0.8,5.3-1.7,5.3-1.7s3.9-0.3,1.9-1.2l-2-0.9L385.7,59.9z"/>
		</g>
	</g>
	<path class="st1" d="M385.7,59.9c0,0-3.4,2.1-2.4,2.6c1.7,0.8,5.3-1.7,5.3-1.7s3.9-0.3,1.9-1.2l-2-0.9L385.7,59.9z"/>
	<path class="st5" d="M390.2,28.9c0,0,2,9.1,4.5,9.1s7.7-13.7,7.7-13.7l-3.5-2.4L390.2,28.9z"/>
	<g>
		<defs>
			<path id="SVGID_13_" d="M390.2,28.9c0,0,2,9.1,4.5,9.1s7.7-13.7,7.7-13.7l-3.5-2.4L390.2,28.9z"/>
		</defs>
		<clipPath id="SVGID_14_">
			<use xlink:href="#SVGID_13_"  style="overflow:visible;"/>
		</clipPath>
		<g class="st20">
			<path class="st7" d="M384.7,21.1c0.2,1.1,0.6,2.2,1.1,3.3c1.7,3.3,4.1,8.6,7.3,7.7c2.8-0.7,7-5,7.5-7.6c0.3-1.4,0.4-2.9,0.5-4.4
				L384.7,21.1z"/>
		</g>
	</g>
	<path class="st1" d="M390.2,28.9c0,0,2,9.1,4.5,9.1s7.7-13.7,7.7-13.7l-3.5-2.4L390.2,28.9z"/>
	<path class="st7" d="M385.5,2.1c0,0-7.2,2-5.9,13.2c1.3,11.6,3,7.1,2.3,9.5s10.6,2.6,10.6,2.6s9.9-1.2,12.9,0.9
		c3,2.2,4.7-3,3.6-6.5s-5.3-9.9-6.5-15.1C400.7-0.7,389.9-0.5,385.5,2.1z"/>
	<path class="st8" d="M383.3,11.6c0,0,0,8.3,1.7,11.6s3.9,8.8,7.2,8.2c3-0.6,7.8-4.6,8.4-7.1c0.4-1.5,0.6-3.1,0.8-4.6
		c0.4-0.2,1.5,0.7,2.1-2.2c0.2-1.1,1.2-4.2-1.1-4.7c-2.5-0.5-2.5,3.1-2.5,3.1l-3.7-9.3l-8.5-1.4l-2.8,1.3L383.3,11.6z"/>
	<path class="st1" d="M388.7,19.6c-0.1,1.1-0.4,2.1-0.7,3.1c-0.1,0.4,0.1,0.7,0.5,0.8l1.7,0.5"/>
	<path class="st1" d="M391.5,25.8c0,0,3.2-0.1,4.5-1.9"/>
	<path class="st1" d="M384.8,17c0.3-0.7,1.1-1,1.8-0.7c0,0,0,0,0,0"/>
	<path class="st1" d="M390.4,15.8c0,0,1.6-1.1,3.7,0.5"/>
	<path class="st9" d="M386.6,19.6c0.1,0.4-0.1,0.8-0.3,0.9s-0.5-0.3-0.5-0.8s0.1-0.8,0.3-0.9S386.5,19.1,386.6,19.6z"/>
	<path class="st9" d="M392.3,19.2c0.1,0.5-0.1,0.8-0.3,0.9s-0.5-0.3-0.5-0.8s0.1-0.8,0.3-0.9S392.2,18.8,392.3,19.2z"/>
	<path class="st7" d="M382.8,6.5c0,0-2.8,7.3,1.3,7.1s7.5-2.8,11.5-0.7S395,9,395,9s4.1,4.4,4,7.4s1.5-1.9,1.2-3.5s-3-9.6-3-9.6
		l-4.4-1l-7.5,0.8L382.8,6.5z"/>
	<path class="st7" d="M400.9,23c-0.3,1.2-4.5,5.3-1.7,6.2c2.8,0.9,8.9,0,9.8-3.1s-2-4.8-2-4.8S401.3,21.5,400.9,23z"/>
	<path class="st8" d="M401.6,57l-9.3,0.5c0,0-7.8-1.9-10.5-1.8c-2.1,0.2-4.1,0.8-5.9,1.8c-0.8,0.6-1.5,1.5-1.9,2.4
		c-0.1,0.5-0.1,1,0,1.4c0,0.5,0.4,1,0.9,1c1.8,0.1,4.7,0.3,5.4-0.6c0,0-0.6,0.7,0.5,0.7s2.5-1.7,2.5-1.7l3.1-0.1
		c0,0,1.4,1.7,5.4,1.8c0.7-0.1,1.3-0.3,1.9-0.5l7.5,1l1-1.3v-4.4L401.6,57z"/>
	<path class="st1" d="M375.4,61.7c0,0,0.9-3.1,1.9-3.7c0.9-0.4,1.8-0.8,2.7-1.2"/>
	<path class="st1" d="M377.6,61.7c0.1-0.7,0.3-1.5,0.6-2.1c0.8-0.9,1.8-1.6,3-2.1c0.7-0.1,1.4-0.1,2.1,0"/>
	<path class="st1" d="M380.6,61.1c0,0,0.3-1.3,0.6-1.6c0.6-0.4,1.4-0.6,2.1-0.8c0.6,0,1.1,0,1.7,0"/>
	<path class="st2" d="M399.9,63.1c0,0,17.9,2.3,21.8,2.5s2.9-18.8,2.5-26.9s-8.3-10.9-8.3-10.9c-5.6,11.7,0.8,26.9,0.8,26.9
		l-15.9,1.9C400.8,56.7,402,60.8,399.9,63.1z"/>
	<path class="st1" d="M409.1,35.4c0.2,4,1.7,7.8,4.2,10.9"/>
	<path class="st1" d="M381.6,33.5c-0.8,3.7-1.2,7.5-1.2,11.2"/>
	<path class="st9" d="M369.9,38.9h-4l5.5,25.9h4c0.9,0,1.7-0.7,1.7-1.6c0-0.2,0-0.4-0.1-0.5l-4.6-21.7
		C372.2,39.8,371.1,39,369.9,38.9z"/>
	<g>
		<defs>
			<path id="SVGID_15_" d="M369.9,38.9h-4l5.5,25.9h4c0.9,0,1.7-0.7,1.7-1.6c0-0.2,0-0.4-0.1-0.5l-4.6-21.7
				C372.2,39.8,371.1,39,369.9,38.9z"/>
		</defs>
		<clipPath id="SVGID_16_">
			<use xlink:href="#SVGID_15_"  style="overflow:visible;"/>
		</clipPath>
		<g class="st21">
			<path class="st4" d="M369.9,38.9h-4l5.5,25.9h4c0.9,0,1.7-0.7,1.7-1.6c0-0.2,0-0.4-0.1-0.5l-4.6-21.7
				C372.2,39.8,371.1,39,369.9,38.9z"/>
		</g>
	</g>
	<path class="st1" d="M369.9,38.9h-4l5.5,25.9h4c0.9,0,1.7-0.7,1.7-1.6c0-0.2,0-0.4-0.1-0.5l-4.6-21.7
		C372.2,39.8,371.1,39,369.9,38.9z"/>
	<path class="st9" d="M377.1,62.7h21l0,0v1c0,0.7-0.5,1.2-1.2,1.2h-18.7c-0.7,0-1.2-0.5-1.2-1.2L377.1,62.7L377.1,62.7z"/>
	<g>
		<defs>
			<path id="SVGID_17_" d="M377.1,62.7h21l0,0v1c0,0.7-0.5,1.2-1.2,1.2h-18.7c-0.7,0-1.2-0.5-1.2-1.2L377.1,62.7L377.1,62.7z"/>
		</defs>
		<clipPath id="SVGID_18_">
			<use xlink:href="#SVGID_17_"  style="overflow:visible;"/>
		</clipPath>
		<g class="st22">
			<path class="st4" d="M377.1,62.7h21l0,0v1c0,0.7-0.5,1.2-1.2,1.2h-18.7c-0.7,0-1.2-0.5-1.2-1.2L377.1,62.7L377.1,62.7z"/>
		</g>
	</g>
	<path class="st1" d="M377.1,62.7h21l0,0v1c0,0.7-0.5,1.2-1.2,1.2h-18.7c-0.7,0-1.2-0.5-1.2-1.2L377.1,62.7L377.1,62.7z"/>
	<path class="st9" d="M373.8,64.9h-32.5c-1.2-0.1-2.3-0.9-2.6-2.1l-4.6-21.7c-0.3-0.9,0.3-1.8,1.1-2.1c0.2-0.1,0.4-0.1,0.5-0.1h32.5
		c1.2,0.1,2.3,0.9,2.6,2.1l4.6,21.7c0.3,0.9-0.3,1.8-1.2,2.1C374.2,64.8,374,64.9,373.8,64.9z"/>
	<g>
		<defs>
			<path id="SVGID_19_" d="M373.8,64.9h-32.5c-1.2-0.1-2.3-0.9-2.6-2.1l-4.6-21.7c-0.3-0.9,0.3-1.8,1.1-2.1c0.2-0.1,0.4-0.1,0.5-0.1
				h32.5c1.2,0.1,2.3,0.9,2.6,2.1l4.6,21.7c0.3,0.9-0.3,1.8-1.2,2.1C374.2,64.8,374,64.9,373.8,64.9z"/>
		</defs>
		<clipPath id="SVGID_20_">
			<use xlink:href="#SVGID_19_"  style="overflow:visible;"/>
		</clipPath>
		<g class="st23">
			<path class="st15" d="M373.8,64.9h-32.5c-1.2-0.1-2.3-0.9-2.6-2.1l-4.6-21.7c-0.3-0.9,0.3-1.8,1.1-2.1c0.2-0.1,0.4-0.1,0.5-0.1
				h32.5c1.2,0.1,2.3,0.9,2.6,2.1l4.6,21.7c0.3,0.9-0.3,1.8-1.2,2.1C374.2,64.8,374,64.9,373.8,64.9z"/>
		</g>
	</g>
	<path class="st1" d="M373.8,64.9h-32.5c-1.2-0.1-2.3-0.9-2.6-2.1l-4.6-21.7c-0.3-0.9,0.3-1.8,1.1-2.1c0.2-0.1,0.4-0.1,0.5-0.1h32.5
		c1.2,0.1,2.3,0.9,2.6,2.1l4.6,21.7c0.3,0.9-0.3,1.8-1.2,2.1C374.2,64.8,374,64.9,373.8,64.9z"/>
	<path class="st5" d="M312.1,30.5c-3.3-0.1-5.8-2.9-5.7-6.2c0.1-3.1,2.6-5.5,5.7-5.7h44.2c3.3,0.1,5.8,2.9,5.7,6.2
		c-0.1,3.1-2.6,5.5-5.7,5.7H312.1z"/>
	<path class="st13" d="M312.1,30.5c-3.3-0.1-5.8-2.9-5.7-6.2c0.1-3.1,2.6-5.5,5.7-5.7h44.2c3.3,0.1,5.8,2.9,5.7,6.2
		c-0.1,3.1-2.6,5.5-5.7,5.7H312.1z"/>
	<path class="st3" d="M338.6,20.7h-26.4c-2.2,0.1-3.8,1.9-3.7,4.1c0.1,2,1.7,3.6,3.7,3.7h24.6L338.6,20.7z"/>
	<path class="st1" d="M337.8,117.7V64.9h71.4c0,1.3-0.5,2.6-1.5,3.6c-0.9,0.9-2.2,1.5-3.6,1.5h-59v55.6"/>
</g>
<g id="freepik--character-2--inject-65">
	<path class="st2" d="M353.3,301.3h-32.5c-1.5,0-2.8-1.2-2.8-2.7l-2.2-59.9c-0.1-1.5,1.1-2.8,2.7-2.9c0.1,0,0.2,0,0.3,0l38,2.7
		c1.5,0.1,2.7,1.4,2.6,2.9l-3.3,57.2C356.1,300.1,354.8,301.3,353.3,301.3z"/>
	<path class="st8" d="M330.3,265.5c0.2-0.8,0.4-1.6,0.5-2.5c0-0.5-0.3-1.7-0.8-2s-2.8,0.2-2.8,0.2s0.6-1.9,0.2-2.3s-1.6-0.2-2.1,0
		c-0.8,0.4-1.7,1.9-2.2,2.6c-0.6,0.8-1.7,2.6-2.3,3.4c-0.3,0.4-1.2,1.7-1.2,1.7l-7.2,2.6l0.4,7.3l8.1-4.9c0,0,7.3,0,8.9-1.6
		C330.5,269,330.1,266.6,330.3,265.5z"/>
	<path class="st2" d="M318.5,250.7c-0.4,5.8-1.3,11.9-3,15.4h3c0,0-2.7,4.9-1,9.5c0,0-8.3,5.5-10.1,2s0.3-17.9,2.2-24.8
		s2.5-17.5,9.2-17"/>
	<path class="st1" d="M314.2,266.6c-1.4,0.5-2.5,1.5-3.4,2.7"/>
	<path class="st8" d="M330.4,247.7l1.4-0.2c0.9-0.1,1.8,0.5,1.9,1.4c0,0,0,0,0,0l1.5,11.2c0.1,0.9-0.5,1.8-1.5,1.9c0,0,0,0,0,0
		l-1.4,0.2L330.4,247.7z"/>
	<path class="st24" d="M332.5,262.3l-4.5,0.6c-1.1,0.1-2.1-0.6-2.2-1.7l-1.5-10.8c-0.1-1.1,0.6-2.1,1.7-2.2l4.5-0.6
		c1.1-0.1,2.1,0.6,2.2,1.7l1.5,10.8C334.3,261.2,333.6,262.2,332.5,262.3z"/>
	<path class="st1" d="M332.5,262.3l-4.5,0.6c-1.1,0.1-2.1-0.6-2.2-1.7l-1.5-10.8c-0.1-1.1,0.6-2.1,1.7-2.2l4.5-0.6
		c1.1-0.1,2.1,0.6,2.2,1.7l1.5,10.8C334.3,261.2,333.6,262.2,332.5,262.3z"/>
	<path class="st8" d="M325.4,250.2c0,0.3,0.4,0.6,0.7,0.5s0.6-0.4,0.5-0.7l0,0c-0.1-0.3-0.4-0.6-0.7-0.5
		C325.6,249.5,325.4,249.8,325.4,250.2C325.4,250.2,325.4,250.2,325.4,250.2z"/>
	<path class="st8" d="M326.6,261.2c-0.1-0.8-0.2-1.7-0.2-2.5c0.1-0.5,0.5-1.7,1-1.9s2.8,0.5,2.8,0.5s-0.4-1.9,0.1-2.3s1.6-0.1,2,0.2
		c0.7,0.4,1.5,2.1,1.9,2.8c0.5,0.9,1.4,2.7,1.9,3.6c0.2,0.5,1,1.8,1,1.8l6.5,3l-3,5.4l-5.3-3.6c0,0-7.3-0.8-8.6-2.6
		C325.9,264.7,326.6,262.3,326.6,261.2z"/>
	<path class="st2" d="M356.2,241.5c0.2-0.7,0.3-1.4,0.5-2.1c0.1-0.5,0.6-0.9,1.2-0.8c0.2,0,0.4,0.2,0.5,0.3l0.2,0.3
		c1.3,1.4,2.3,3.1,2.8,5c1.8,6.7,5.6,23.4,2.9,35.7c-0.3,1.4-1.6,2.4-3.1,2.3c-5-0.3-13.6-1.5-23.1-10.9c0,0,2-4.7,4.4-6.3l13.1,5.3
		c-0.6-4.7-0.9-9.4-0.9-14.1"/>
	<path class="st1" d="M356.8,271.2c1.1,0.6,1.9,1.6,2.2,2.8"/>
	<path class="st7" d="M339.2,228.1l8.5-13.6c0,0,4.4-1.8,2-4.2c0,0,3.8-6.6-1.1-6.6c0,0-0.6-5.3-5.4-3.2c0,0-4.1-4.9-6.9-1.3
		c0,0-5.7-2.8-7.1,0.7c0,0-4.1,0-4,3.1c0,0-2.6,3.5,0.8,3.9c0,0-0.9,2.8,3.2,2.8s9.1,5,9.1,5l1,5.1L339.2,228.1z"/>
	<path class="st5" d="M344.7,237.7c0,0-9.2,5.1-16-1.4c0,0,1.7-3.2,2.3-11.1l9.8-1.8c-0.3,2.7-0.2,5.4,0.3,8.1
		C341.7,234.6,343.5,237.3,344.7,237.7z"/>
	<g>
		<defs>
			<path id="SVGID_21_" d="M344.7,237.7c0,0-9.2,5.1-16-1.4c0,0,1.7-3.2,2.3-11.1l9.8-1.8c-0.3,2.7-0.2,5.4,0.3,8.1
				C341.7,234.6,343.5,237.3,344.7,237.7z"/>
		</defs>
		<clipPath id="SVGID_22_">
			<use xlink:href="#SVGID_21_"  style="overflow:visible;"/>
		</clipPath>
		<g class="st25">
			<path class="st7" d="M341.5,223.7l-0.3,1c-0.2,0.6-0.4,1.2-0.8,1.6c-1.5,2-5.7,7-9.8,6.5c-3.8-0.4-4.9-6.3-5.1-9.2L341.5,223.7z"
				/>
		</g>
	</g>
	<path class="st1" d="M344.7,237.7c0,0-9.2,5.1-16-1.4c0,0,1.7-3.2,2.3-11.1l9.8-1.8c-0.3,2.7-0.2,5.4,0.3,8.1
		C341.7,234.6,343.5,237.3,344.7,237.7z"/>
	<path class="st8" d="M326.8,208.3l-1.5,4.9c-0.2,0.5-0.2,1.1-0.1,1.6l0.2,1.5l-0.8,3.2c0,0.2-0.1,0.3-0.1,0.5
		c-0.2,1.7-0.8,10.8,4,12c4.3,1,9.5-3.6,11.4-5.5c0.5-0.5,0.8-1,1.1-1.6l1.1-2.5c1.3,0.2,2.5-0.4,3.1-1.6c1-2,2.3-3.1,0.4-4.5
		s-3.1,1.4-3.1,1.4s0.1-3.5-0.4-4.6s-2-2.3-2.5-3.2c-0.2-0.7-0.3-1.4-0.4-2.2c0,0-6.6,0.2-11.3-1.6L326.8,208.3z"/>
	<path class="st8" d="M326.8,208.3l-1.5,4.9c-0.2,0.5-0.2,1.1-0.1,1.6l0.2,1.5l-0.8,3.2c0,0.2-0.1,0.3-0.1,0.5
		c-0.2,1.7-0.8,10.8,4,12c4.3,1,9.5-3.6,11.4-5.5c0.5-0.5,0.8-1,1.1-1.6l1.1-2.5c1.3,0.2,2.5-0.4,3.1-1.6c1-2,2.3-3.1,0.4-4.5
		s-3.1,1.4-3.1,1.4s0.1-3.5-0.4-4.6s-2-2.3-2.5-3.2c-0.2-0.7-0.3-1.4-0.4-2.2c0,0-6.6,0.2-11.3-1.6L326.8,208.3z"/>
	<path class="st1" d="M329.8,218l-2.4,3.9c-0.3,0.5-0.1,1.1,0.4,1.4c0.1,0,0.1,0.1,0.2,0.1l2.1,0.5"/>
	<path class="st1" d="M333.4,226.1c-1.5,1.2-3.4,1.4-4.3,0.5"/>
	<path class="st9" d="M333.1,219.3c-0.1,0.6-0.4,1-0.7,1s-0.4-0.6-0.3-1.1s0.4-1,0.7-1S333.2,218.8,333.1,219.3z"/>
	<path class="st9" d="M327.7,218.5c-0.1,0.6-0.4,1-0.7,1s-0.4-0.6-0.3-1.1s0.4-1,0.7-1S327.8,217.9,327.7,218.5z"/>
	<path class="st1" d="M325.5,215c0.3-0.9,1.2-1.4,2.1-1.1c0.1,0,0.2,0.1,0.3,0.1"/>
	<path class="st1" d="M331.9,214.3c1.3,0,2.4,0.8,2.9,2"/>
	<path class="st7" d="M341,207.8c0,0-5.4,3.9-6,1.1c0,0-4.5,1.1-4.8-0.4c0,0-4.5,1.8-5,0.4s3.6-5.1,3.6-5.1l9.5,1.2L341,207.8z"/>
	<path class="st16" d="M329.9,202.9c-0.6,1.2-1.4,2.3-2.3,3.3"/>
	<path class="st16" d="M332.8,201.6c-0.8-0.1-1.6,0.1-2.2,0.6"/>
	<path class="st16" d="M343.8,204.9c-2.6-0.2-3,2-7.1,1.9c-3.8-0.2-2.1-3.1-2.7-4.5"/>
	<path class="st16" d="M345.7,213.7c0,0,4.5-6.6,0-8.3"/>
	<path class="st8" d="M312.9,420.8c-1.9,0.6-3.4,2-4.2,3.9c-0.2,0.5,0,1.1,0.5,1.3c0.2,0.1,0.3,0.1,0.5,0.1h14.7
		c0.6,0,1.1-0.4,1.2-1c0.2-1.8,0-3.7-0.7-5.4l0.8-9.1h-8.6l-0.7,8.7L312.9,420.8z"/>
	<path class="st15" d="M322.3,420.7c1.5,2.1,1.2-1.1,2.6-1.1c0.7,1.7,1,3.6,0.7,5.4c-0.1,0.6-0.6,1-1.2,1h-14.7
		c-0.6,0-1-0.4-1.1-0.9c0-0.2,0-0.3,0.1-0.5c0.7-1.8,2.3-3.3,4.2-3.9l3.5-1.5C316.4,419.2,320.8,418.5,322.3,420.7z"/>
	<path class="st8" d="M325.7,424.7c0,0.1,0,0.2,0,0.3c-0.1,0.6-0.6,1-1.2,1h-14.7c-0.6,0-1-0.4-1-1c0-0.1,0-0.2,0-0.3
		c1,0,1.7,0,1.7,0L325.7,424.7z"/>
	<path class="st7" d="M319,300l-3,116h10.6c0,0,3.3-29,3.7-38.8c0.2-4.4,1.1-12,1.4-16.4c0.5-7.9,1.8-16.7,4.8-32
		c0.5-2.5,3.5-6.7,4.1-9.2c1.2-4.8,1.8-19.7,1.8-19.7L319,300z"/>
	<path class="st16" d="M326.3,368.8c0,0-2.4,3.2-5.8,2.8"/>
	<path class="st16" d="M317.7,365.8c0,0,3.8,2.3,9.5,0"/>
	<path class="st8" d="M364.6,420.8c1.4,0.6,3.5,1.5,4.3,4.2c0.1,0.5-0.2,1-0.6,1.1c-0.1,0-0.1,0-0.2,0h-14.7c-0.7,0-1.3-0.5-1.4-1.3
		c-0.2-1.8,0.1-3.5,0.8-5.2l-0.8-9.1h8.6l0.6,8.7L364.6,420.8z"/>
	<path class="st15" d="M368.9,424.9c0.1,0.5-0.2,1-0.6,1.1c-0.1,0-0.1,0-0.2,0h-14.7c-0.7,0-1.3-0.5-1.4-1.3
		c-0.2-1.8,0.1-3.5,0.8-5.2c1.4-0.2,0.5,2.8,2.8,0.9s5.7-1.3,5.7-1.3l3.5,1.5C366,421.3,368.1,422.3,368.9,424.9z"/>
	<path class="st8" d="M368.8,424.7c0,0.1,0.1,0.1,0.1,0.2c0.1,0.5-0.2,1-0.6,1.1c-0.1,0-0.1,0-0.2,0h-14.7c-0.7,0-1.3-0.5-1.4-1.3v0
		H368.8z"/>
	<path class="st7" d="M355.1,300c0,0,1.5,11.5,1.7,15.4c0.1,2.3-0.1,6.9,0,9.2c0.3,8.8,1.4,26.5,2.2,35.2c0.5,4.6,2.2,13.8,2.5,18.4
		c0.6,9.4,0,37.8,0,37.8h-10.6c0,0-4.3-32-5.4-42.7c-0.4-3.8-4.8-41.7-7.8-49.9c-0.6-1.6-1.9-4.2-2.4-5.8c-1.1-3.3-1.9-6.8-2.3-10.2
		c-0.2-1.8-0.3-7.3-0.3-7.3L355.1,300z"/>
	<path class="st16" d="M357.1,364.5c0,0-2,3.6-9,3.6"/>
	<path class="st16" d="M337.4,324.1c-0.6-1.5-1.9-4-2.4-5.5c-0.8-2.3-2.1-11.3-2.4-18.6"/>
	<path class="st16" d="M347,376c2,10.1,6,19.7,11.6,28.2"/>
	<path class="st16" d="M317,374.6c0.7,9.4,3.1,18.5,7.2,27"/>
	<path class="st8" d="M345.6,224.9h27.2c2.1,0,3.9,2.5,3.9,5.5v9.2c0,3-1.7,5.5-3.9,5.5h-21.7l-8.8,5.8l3.2-5.8l0,0
		c-2.1,0-3.9-2.5-3.9-5.5v-9.2C341.8,227.3,343.5,224.9,345.6,224.9z"/>
	<line class="st1" x1="370.6" y1="230.5" x2="347.6" y2="230.5"/>
	<line class="st1" x1="370.6" y1="234.6" x2="349.3" y2="234.6"/>
	<line class="st1" x1="370.6" y1="238.7" x2="347.6" y2="238.7"/>
</g>
<g id="freepik--character-1--inject-65">
	<path class="st1" d="M19.6,173.1h25.1c2.3,0.2,4.2,2,4.4,4.4l5.9,53.3c0.5,4.3,4.1,7.5,8.4,7.5"/>
	<path class="st1" d="M87.7,245v4.9H28.2c-4.4,0-8-3.4-8.4-7.7l-5.2-63.9c-0.2-2.6,1.7-4.9,4.3-5.1c0.2,0,0.4,0,0.6,0
		c2.3,0.2,4.2,2,4.4,4.4l5.9,53.3c0.5,4.3,4.1,7.5,8.4,7.5H81C84.7,238.3,87.7,241.3,87.7,245z"/>
	<g>
		<defs>
			<polyline id="SVGID_23_" points="59.6,265.5 59.6,249.9 51.7,249.9 51.7,266.5 			"/>
		</defs>
		<clipPath id="SVGID_24_">
			<use xlink:href="#SVGID_23_"  style="overflow:visible;"/>
		</clipPath>
		<g class="st26">
			<path class="st1" d="M74.8,297.2H59.6v-49h-7.8v49H36.5c-2.6,0-4.8,2.1-4.8,4.8h47.7C79.5,299.3,77.4,297.2,74.8,297.2
				C74.8,297.2,74.8,297.2,74.8,297.2z"/>
		</g>
	</g>
	<polyline class="st1" points="59.6,265.5 59.6,249.9 51.7,249.9 51.7,266.5 	"/>
	<polygon class="st8" points="87.2,283.5 87.9,294.3 96.1,294.1 95.6,282.4 	"/>
	<path class="st7" d="M87.3,298.3c0,0,13.1,0.5,17.5,0c1.4-0.2,4.5-0.2,5.3-1.3c0.4-0.5-0.3-2.6-0.3-2.6l-6.8-2.1l-4.7-2.6
		c-0.8-0.4-1.7-0.3-2.3,0.3l-0.5,0.5c-0.5,0.4-0.7,1-0.7,1.6v0.2l-0.8-0.5c-0.3-0.2-0.7-0.4-1.2-0.4h-5.7c-1,1.6-1.5,3.5-1.3,5.4
		C85.8,297.7,86.5,298.3,87.3,298.3z"/>
	<polygon class="st8" points="60.8,271 55.4,280 61.9,284.8 68.2,275.4 	"/>
	<path class="st2" d="M83.5,231.3c0,0-8.9,4.2-25.4,42.6c1.8,3,4.9,5,8.4,5.5c0,0,39.3-48.5,34.3-57c-4.7-8-48.5-5-48.5-5l0.6,19.2
		C52.9,236.7,79.2,235.3,83.5,231.3z"/>
	<path class="st7" d="M63.5,127.8c0,0-7.9-5.9-15.6-0.8c-7.7,5.1-12.6,17.2-8.5,22c2.5,2.9,6.2,4.4,10,4.2c0,0,7.8,6,11,5
		s8.6-9.3,8.9-16.8S72,128.5,63.5,127.8z"/>
	<path class="st5" d="M55.7,154.3c0,0-2.2,3-2.1,5.6l-10.3-3.6c0,0,4.3-6.2,5.3-12.3S55.7,154.3,55.7,154.3z"/>
	<g>
		<defs>
			<path id="SVGID_25_" d="M55.7,154.3c0,0-2.2,3-2.1,5.6l-10.3-3.6c0,0,4.3-6.2,5.3-12.3S55.7,154.3,55.7,154.3z"/>
		</defs>
		<clipPath id="SVGID_26_">
			<use xlink:href="#SVGID_25_"  style="overflow:visible;"/>
		</clipPath>
		<g class="st27">
			<path class="st7" d="M48.4,146.8c0.2,3.1,1,4.4,3.6,7c3,3,4.9,5.4,9.3,0c2.9-3.6,3.8-5.9,4-7H48.4z"/>
		</g>
	</g>
	<path class="st1" d="M55.7,154.3c0,0-2.2,3-2.1,5.6l-10.3-3.6c0,0,4.3-6.2,5.3-12.3S55.7,154.3,55.7,154.3z"/>
	<path class="st2" d="M33.1,218.7c0,0-7.6,16.6,5.2,19.4s39.9-3.3,39.9-3.3s2.2,21.4,8.4,52.5c3.4,0.3,6.8,0,10.1-0.8
		c0,0-0.4-57.9-5.6-65S46.9,214.9,33.1,218.7z"/>
	<path class="st7" d="M31.2,218.7c0,0,1.9,2.1,14.4-2.1l15.8-0.6c0,0,5.9-26.7,4-36.7c-1.1-5.8-2.5-11.5-4.2-17.1
		c-8.4-3.2-17.3-4.4-26.2-3.6c-1,0.1-1.7,1-1.6,2C34.1,168,36.4,192.3,31.2,218.7z"/>
	<path class="st7" d="M61.3,162.2c0,0,6.6,1.5,6.6,9.3S67.1,192,67.1,192l8.5,11.5c0,0-3.6,2-4.2,5.4c0,0-12.7-10.4-13.4-14
		S61.3,162.2,61.3,162.2z"/>
	<path class="st8" d="M62.7,190l0.6,2.3l-1.8-1.7l-5.2-8.8c-0.2-0.3-0.1-0.7,0.2-0.9l0,0c0.3-0.2,0.7-0.1,0.9,0.2L62.7,190z"/>
	<path class="st8" d="M49,191.4c1.5-1.1,2.9-2.3,4.1-3.8c1.7-2.2,2.2-3.4,3.5-3s6,1.7,5.3,3.2c0,0.6-0.2,1.3-0.6,1.8
		c-0.3,0.7-0.8,1.3-1.4,1.7c-0.9,0.7-1.2,0.4-1.2,0.4s-0.7,0.5-1.1,0.4c0,0-1,1.8-4.3,2.4l-9,3.8l-0.9-5.8L49,191.4z"/>
	<path class="st1" d="M55.3,186.6c0.4,0.4,0.8,0.7,1.3,1c0.6,0.4,2.8,1.5,2.7,2.2s-1.5,2.1-2,2s-2.2-0.7-2.1-1.1
		c-0.2,0.3-0.3,0.6-0.3,0.9c0,0.9-0.4,1.7-1,2.4"/>
	<path class="st1" d="M61.3,189.6c-0.1-0.4-0.4-0.7-0.7-0.9c-1.1-0.6-2.1-1.3-3-2.1"/>
	<path class="st1" d="M61.9,187.8c-0.2-0.2-0.5-0.4-0.8-0.6c-1.1-0.7-2.3-1.4-3.5-1.9"/>
	<path class="st1" d="M55.7,190.3c0,0,0.7-0.2,1,0s0.2,0.6,0.6,0.9"/>
	<path class="st1" d="M56.6,190.3c-0.4-0.3-0.8-0.7-1.1-1.1"/>
	<path class="st7" d="M35.9,181.4c-0.1,2.5-1.5,12.7-1.5,12.7c4.4-1.4,8.9-2.4,13.5-3c0,0-0.7,2.7,1.3,6.5c0,0-18.9,7.4-22.7,6.6
		s-3.2-9.2-1.8-27.8S35,158.6,35,158.6"/>
	<path class="st16" d="M48.5,197.6c0,0-7.7,3-14.3,5"/>
	<path class="st16" d="M35,181.4c-0.1,2.5-1.5,12.7-1.5,12.7c4.4-1.4,8.9-2.4,13.5-3"/>
	<path class="st7" d="M41,158.3c0,0,2.2-1.4,2.2-3.1s9.9,3.4,12.1,3.1s1,1.6,0.8,2.2C55.5,162.3,53.9,164.6,41,158.3z"/>
	<path class="st16" d="M56.1,160.5c-0.6,1.7-2.1,3.8-13.2-1.2"/>
	<path class="st8" d="M66.7,138.5l-1,6.2c0,0,0.2,2.5-4.2,7.9s-6.3,3-9.3,0s-3.6-4.3-3.6-8.6c0,0-1.5-0.2-2.5-3s2.5-3.9,3.4-2.1
		l5.1-2.6l3.2-3.9l1.8-2.4l3.8,1.4l4,2.4L66.7,138.5z"/>
	<path class="st1" d="M62.2,144.9c0,0-1.6,1.6-0.3,3.2c1.8,2.1-2,1.5-2,2.1"/>
	<path class="st1" d="M57.9,150.9c0,0-1.2,0.3-3.4-1.8"/>
	<path class="st9" d="M58.6,144.5c-0.2,0.5-0.6,0.9-0.8,0.8s-0.2-0.6,0-1.1s0.6-0.9,0.8-0.8S58.8,144,58.6,144.5z"/>
	<path class="st9" d="M63.3,146.7c-0.2,0.5-0.5,0.8-0.7,0.7s-0.2-0.5,0-1s0.5-0.8,0.7-0.7S63.5,146.2,63.3,146.7z"/>
	<path class="st1" d="M61.1,140.6c-1-0.8-2.4-0.8-3.5,0"/>
	<path class="st1" d="M64.4,142.4c0.5,0.2,0.9,0.6,1,1.1"/>
	<path class="st7" d="M49.8,136.3c0,0-2.2,5.7,0.9,8.2c0,0,2.6-7.4,7.9-8.2s7.5-2.5,7.5-2.5s-0.6,7.3,0.8,9.1s1.4-8.4,1.4-8.4
		L67,131l-7.7-3l-6.6,3.1L49.8,136.3z"/>
	<path class="st7" d="M48.5,145c0,0-1.1,6.4,1.4,7s-3.5,0.8-6.5-0.6s4.1-7.1,4.1-7.1L48.5,145z"/>
	<path class="st8" d="M62.4,189.6h1.2l-3.8,24.1h-1.2c-0.6,0-1-0.4-1-1c0-0.1,0-0.1,0-0.2l3.4-21.7
		C61.1,190.2,61.7,189.7,62.4,189.6z"/>
	<path class="st8" d="M59.4,213.8h14c0.7,0,1.3-0.5,1.4-1.2l3.4-21.7c0.1-0.5-0.2-1.1-0.8-1.2c-0.1,0-0.1,0-0.2,0h-14
		c-0.7,0-1.3,0.5-1.4,1.2l-3.4,21.7c-0.1,0.5,0.2,1.1,0.8,1.2C59.2,213.8,59.3,213.8,59.4,213.8z"/>
	<path class="st1" d="M74.1,193.9h1.3c0.4,0,0.8-0.3,0.9-0.8l0.2-1.3c0.1-0.3-0.2-0.7-0.5-0.7c0,0-0.1,0-0.1,0h-1.3
		c-0.4,0-0.8,0.3-0.9,0.8l-0.2,1.3c-0.1,0.3,0.2,0.7,0.5,0.8C74,193.9,74,193.9,74.1,193.9z"/>
	<path class="st1" d="M74.4,192.5c0,0.2,0.1,0.4,0.3,0.5c0,0,0.1,0,0.1,0c0.3,0,0.5-0.2,0.6-0.5c0-0.2-0.1-0.5-0.3-0.5
		c0,0-0.1,0-0.1,0C74.7,192,74.5,192.2,74.4,192.5z"/>
	<path class="st8" d="M75.4,205.7c0,0,1.3-3.9,2.3-3c0.8,0.7-0.6,3-0.6,3H75.4z"/>
	<path class="st8" d="M78.6,207.2c0.2-0.4,1-1.4,0.7-1.9c-0.5-0.8-2.8-0.6-3.7-0.3c-0.6,0.1-1.1,0.4-1.6,0.7
		c-0.1,0.2-0.3,0.7-0.2,0.9s1.1-0.1,1.5-0.1c0.7,0.1,1.3,0.2,2,0.3c-0.7,0.2-1.5,0.4-2.3,0.5c-0.8,0-3.7-0.5-3,1.2
		c0,0-1.1,0.3-0.5,1.1s2.7,0.7,2.7,0.7c-0.5,0.1-1,0.2-1.5,0.2c-0.8,0-1.5-0.6-1.6-0.2c-0.1,0.7,0.5,1.3,1.4,1.6
		c0.9,0.4,1.9,0.4,2.8,0C77,211.5,78,208.5,78.6,207.2z"/>
	<path class="st1" d="M72.8,208.8c0.8,0.2,1.6,0.3,2.3,0.4c0.5,0,1.1-0.1,1.6-0.3"/>
	<path class="st16" d="M66,188.1c0.3-2.9,0.2-5.9-0.2-8.8c-1.1-5.9-2.4-10.8-3.2-13.8"/>
	<path class="st7" d="M51.6,282c0,0,8.9,9.6,12.3,12.3c1.1,0.8,3.3,3,4.6,2.8c0.7-0.1,1.6-2,1.6-2l-3.3-6.3l-1.5-5.2
		c-0.2-0.8-1-1.4-1.8-1.4h-0.7c-0.6,0-1.2,0.2-1.6,0.7L61,283l-0.2-0.9c-0.1-0.4-0.3-0.8-0.6-1.1l-4-4c-1.8,0.4-3.5,1.4-4.7,2.9
		C51,280.5,51.1,281.4,51.6,282z"/>
	<path class="st1" d="M79.4,232.5c0,0,2.8-3.9,4.4-4.6"/>
	<path class="st2" d="M73.6,112.5c-0.5,0-1-0.2-1.4-0.6c-8.2-8.2-21.6-8.2-29.8,0c-0.8,0.7-2,0.7-2.7,0c-0.7-0.7-0.7-1.9,0-2.7
		c9.8-9.7,25.5-9.7,35.3,0c0.8,0.7,0.8,2,0,2.7C74.6,112.2,74.1,112.5,73.6,112.5z"/>
	<path class="st2" d="M68.5,117.6c-0.5,0-1-0.2-1.4-0.6c-5.4-5.4-14.2-5.4-19.6,0c-0.6,0.9-1.8,1-2.7,0.4c-0.9-0.6-1-1.8-0.4-2.7
		c0.1-0.1,0.2-0.3,0.4-0.4c6.9-6.9,18.1-6.9,25.1,0c0,0,0,0,0,0c0.7,0.8,0.7,2,0,2.7C69.5,117.4,69,117.6,68.5,117.6L68.5,117.6z"/>
	<path class="st2" d="M64,122c-0.5,0-1-0.2-1.4-0.6c-3-2.9-7.7-2.9-10.7,0c-0.8,0.7-2,0.6-2.7-0.2c-0.6-0.7-0.6-1.8,0-2.5
		c4.4-4.4,11.7-4.4,16.1,0c0.7,0.7,0.8,2,0,2.7c0,0,0,0,0,0C65,121.8,64.5,122,64,122z"/>
</g>
</svg>
